<?plantuml 1.2026.1?><svg xmlns="http://www.w3.org/2000/svg" xmlns:xlink="http://www.w3.org/1999/xlink" contentStyleType="text/css" data-diagram-type="CLASS" height="1006px" preserveAspectRatio="none" style="width:1316px;height:1006px;background:#FFFFFF;" version="1.1" viewBox="0 0 1316 1006" width="1316px" zoomAndPan="magnify"><defs/><g><!--class User--><g class="entity" data-qualified-name="User" data-source-line="3" id="ent0002"><rect fill="#F1F1F1" height="224.0938" rx="2.5" ry="2.5" style="stroke:#181818;stroke-width:0.5;" width="149.3613" x="621.5" y="186"/><ellipse cx="677.1514" cy="202" fill="#ADD1B2" rx="11" ry="11" style="stroke:#181818;stroke-width:1;"/><path d="M679.917,197.875 Q680.0732,197.6563 680.2607,197.5469 Q680.4482,197.4375 680.667,197.4375 Q681.042,197.4375 681.2764,197.7031 Q681.5107,197.9531 681.5107,198.5625 L681.5107,200.0156 Q681.5107,200.625 681.2764,200.8906 Q681.042,201.1563 680.667,201.1563 Q680.3232,201.1563 680.1201,200.9531 Q679.917,200.7656 679.8076,200.25 Q679.7607,199.8906 679.5732,199.7031 Q679.2451,199.3281 678.6357,199.1094 Q678.0264,198.8906 677.4014,198.8906 Q676.6357,198.8906 675.9951,199.2188 Q675.3701,199.5469 674.8701,200.2969 Q674.3857,201.0469 674.3857,202.0781 L674.3857,203.1719 Q674.3857,204.4063 675.2764,205.2344 Q676.167,206.0469 677.7607,206.0469 Q678.6982,206.0469 679.3545,205.7969 Q679.7451,205.6406 680.167,205.2031 Q680.4326,204.9375 680.5732,204.8594 Q680.7295,204.7813 680.9326,204.7813 Q681.2607,204.7813 681.5107,205.0469 Q681.7764,205.2969 681.7764,205.6406 Q681.7764,205.9844 681.4326,206.3906 Q680.9326,206.9688 680.1357,207.2969 Q679.0576,207.75 677.7607,207.75 Q676.2451,207.75 675.042,207.125 Q674.0576,206.625 673.3701,205.5625 Q672.6826,204.4844 672.6826,203.2031 L672.6826,202.0469 Q672.6826,200.7188 673.292,199.5781 Q673.917,198.4219 675.0107,197.8125 Q676.1045,197.1875 677.3389,197.1875 Q678.0732,197.1875 678.7139,197.3594 Q679.3701,197.5156 679.917,197.875 Z " fill="#000000"/><text fill="#000000" font-family="sans-serif" font-size="14" lengthAdjust="spacing" textLength="29.5586" x="697.6514" y="207.7285">User</text><line style="stroke:#181818;stroke-width:0.5;" x1="622.5" x2="769.8613" y1="218" y2="218"/><text fill="#000000" font-family="sans-serif" font-size="14" lengthAdjust="spacing" textLength="89.8721" x="627.5" y="236.5332">+String userID</text><text fill="#000000" font-family="sans-serif" font-size="14" lengthAdjust="spacing" textLength="110.8926" x="627.5" y="254.1426">+String username</text><text fill="#000000" font-family="sans-serif" font-size="14" lengthAdjust="spacing" textLength="108.5547" x="627.5" y="271.752">+String password</text><text fill="#000000" font-family="sans-serif" font-size="14" lengthAdjust="spacing" textLength="82.0928" x="627.5" y="289.3613">+String email</text><text fill="#000000" font-family="sans-serif" font-size="14" lengthAdjust="spacing" textLength="103.8789" x="627.5" y="306.9707">+String fullName</text><text fill="#000000" font-family="sans-serif" font-size="14" lengthAdjust="spacing" textLength="137.3613" x="627.5" y="324.5801">+String phoneNumber</text><text fill="#000000" font-family="sans-serif" font-size="14" lengthAdjust="spacing" textLength="92.2305" x="627.5" y="342.1895">+String gender</text><text fill="#000000" font-family="sans-serif" font-size="14" lengthAdjust="spacing" textLength="50.21" x="627.5" y="359.7988">+int age</text><text fill="#000000" font-family="sans-serif" font-size="14" lengthAdjust="spacing" textLength="98.4648" x="627.5" y="377.4082">+boolean active</text><text fill="#000000" font-family="sans-serif" font-size="14" lengthAdjust="spacing" textLength="120.2715" x="627.5" y="395.0176">+boolean approved</text><line style="stroke:#181818;stroke-width:0.5;" x1="622.5" x2="769.8613" y1="402.0938" y2="402.0938"/></g><!--class AdminStaff--><g class="entity" data-qualified-name="AdminStaff" data-source-line="16" id="ent0003"><rect fill="#F1F1F1" height="48" rx="2.5" ry="2.5" style="stroke:#181818;stroke-width:0.5;" width="100.4756" x="521" y="515"/><ellipse cx="536" cy="531" fill="#ADD1B2" rx="11" ry="11" style="stroke:#181818;stroke-width:1;"/><path d="M538.7656,526.875 Q538.9219,526.6563 539.1094,526.5469 Q539.2969,526.4375 539.5156,526.4375 Q539.8906,526.4375 540.125,526.7031 Q540.3594,526.9531 540.3594,527.5625 L540.3594,529.0156 Q540.3594,529.625 540.125,529.8906 Q539.8906,530.1563 539.5156,530.1563 Q539.1719,530.1563 538.9688,529.9531 Q538.7656,529.7656 538.6563,529.25 Q538.6094,528.8906 538.4219,528.7031 Q538.0938,528.3281 537.4844,528.1094 Q536.875,527.8906 536.25,527.8906 Q535.4844,527.8906 534.8438,528.2188 Q534.2188,528.5469 533.7188,529.2969 Q533.2344,530.0469 533.2344,531.0781 L533.2344,532.1719 Q533.2344,533.4063 534.125,534.2344 Q535.0156,535.0469 536.6094,535.0469 Q537.5469,535.0469 538.2031,534.7969 Q538.5938,534.6406 539.0156,534.2031 Q539.2813,533.9375 539.4219,533.8594 Q539.5781,533.7813 539.7813,533.7813 Q540.1094,533.7813 540.3594,534.0469 Q540.625,534.2969 540.625,534.6406 Q540.625,534.9844 540.2813,535.3906 Q539.7813,535.9688 538.9844,536.2969 Q537.9063,536.75 536.6094,536.75 Q535.0938,536.75 533.8906,536.125 Q532.9063,535.625 532.2188,534.5625 Q531.5313,533.4844 531.5313,532.2031 L531.5313,531.0469 Q531.5313,529.7188 532.1406,528.5781 Q532.7656,527.4219 533.8594,526.8125 Q534.9531,526.1875 536.1875,526.1875 Q536.9219,526.1875 537.5625,526.3594 Q538.2188,526.5156 538.7656,526.875 Z " fill="#000000"/><text fill="#000000" font-family="sans-serif" font-size="14" lengthAdjust="spacing" textLength="68.4756" x="550" y="536.7285">AdminStaff</text><line style="stroke:#181818;stroke-width:0.5;" x1="522" x2="620.4756" y1="547" y2="547"/><line style="stroke:#181818;stroke-width:0.5;" x1="522" x2="620.4756" y1="555" y2="555"/></g><!--class AcademicLeader--><g class="entity" data-qualified-name="AcademicLeader" data-source-line="17" id="ent0004"><rect fill="#F1F1F1" height="118.4375" rx="2.5" ry="2.5" style="stroke:#181818;stroke-width:0.5;" width="227.9609" x="7" y="480"/><ellipse cx="64.1997" cy="496" fill="#ADD1B2" rx="11" ry="11" style="stroke:#181818;stroke-width:1;"/><path d="M66.9653,491.875 Q67.1216,491.6563 67.3091,491.5469 Q67.4966,491.4375 67.7153,491.4375 Q68.0903,491.4375 68.3247,491.7031 Q68.5591,491.9531 68.5591,492.5625 L68.5591,494.0156 Q68.5591,494.625 68.3247,494.8906 Q68.0903,495.1563 67.7153,495.1563 Q67.3716,495.1563 67.1685,494.9531 Q66.9653,494.7656 66.856,494.25 Q66.8091,493.8906 66.6216,493.7031 Q66.2935,493.3281 65.6841,493.1094 Q65.0747,492.8906 64.4497,492.8906 Q63.6841,492.8906 63.0435,493.2188 Q62.4185,493.5469 61.9185,494.2969 Q61.4341,495.0469 61.4341,496.0781 L61.4341,497.1719 Q61.4341,498.4063 62.3247,499.2344 Q63.2153,500.0469 64.8091,500.0469 Q65.7466,500.0469 66.4028,499.7969 Q66.7935,499.6406 67.2153,499.2031 Q67.481,498.9375 67.6216,498.8594 Q67.7778,498.7813 67.981,498.7813 Q68.3091,498.7813 68.5591,499.0469 Q68.8247,499.2969 68.8247,499.6406 Q68.8247,499.9844 68.481,500.3906 Q67.981,500.9688 67.1841,501.2969 Q66.106,501.75 64.8091,501.75 Q63.2935,501.75 62.0903,501.125 Q61.106,500.625 60.4185,499.5625 Q59.731,498.4844 59.731,497.2031 L59.731,496.0469 Q59.731,494.7188 60.3403,493.5781 Q60.9653,492.4219 62.0591,491.8125 Q63.1528,491.1875 64.3872,491.1875 Q65.1216,491.1875 65.7622,491.3594 Q66.4185,491.5156 66.9653,491.875 Z " fill="#000000"/><text fill="#000000" font-family="sans-serif" font-size="14" lengthAdjust="spacing" textLength="105.0615" x="84.6997" y="501.7285">AcademicLeader</text><line style="stroke:#181818;stroke-width:0.5;" x1="8" x2="233.9609" y1="512" y2="512"/><text fill="#000000" font-family="sans-serif" font-size="14" lengthAdjust="spacing" textLength="119.458" x="13" y="530.5332">+String department</text><text fill="#000000" font-family="sans-serif" font-size="14" lengthAdjust="spacing" textLength="101.5547" x="13" y="548.1426">+String leaderID</text><text fill="#000000" font-family="sans-serif" font-size="14" lengthAdjust="spacing" textLength="215.9609" x="13" y="565.752">+List&lt;Lecturer&gt; assignedLecturers</text><text fill="#000000" font-family="sans-serif" font-size="14" lengthAdjust="spacing" textLength="207.416" x="13" y="583.3613">+List&lt;Module&gt; managedModules</text><line style="stroke:#181818;stroke-width:0.5;" x1="8" x2="233.9609" y1="590.4375" y2="590.4375"/></g><!--class Lecturer--><g class="entity" data-qualified-name="Lecturer" data-source-line="23" id="ent0005"><rect fill="#F1F1F1" height="118.4375" rx="2.5" ry="2.5" style="stroke:#181818;stroke-width:0.5;" width="268.3955" x="565" y="685"/><ellipse cx="669.2686" cy="701" fill="#ADD1B2" rx="11" ry="11" style="stroke:#181818;stroke-width:1;"/><path d="M672.0342,696.875 Q672.1904,696.6563 672.3779,696.5469 Q672.5654,696.4375 672.7842,696.4375 Q673.1592,696.4375 673.3936,696.7031 Q673.6279,696.9531 673.6279,697.5625 L673.6279,699.0156 Q673.6279,699.625 673.3936,699.8906 Q673.1592,700.1563 672.7842,700.1563 Q672.4404,700.1563 672.2373,699.9531 Q672.0342,699.7656 671.9248,699.25 Q671.8779,698.8906 671.6904,698.7031 Q671.3623,698.3281 670.7529,698.1094 Q670.1436,697.8906 669.5186,697.8906 Q668.7529,697.8906 668.1123,698.2188 Q667.4873,698.5469 666.9873,699.2969 Q666.5029,700.0469 666.5029,701.0781 L666.5029,702.1719 Q666.5029,703.4063 667.3936,704.2344 Q668.2842,705.0469 669.8779,705.0469 Q670.8154,705.0469 671.4717,704.7969 Q671.8623,704.6406 672.2842,704.2031 Q672.5498,703.9375 672.6904,703.8594 Q672.8467,703.7813 673.0498,703.7813 Q673.3779,703.7813 673.6279,704.0469 Q673.8936,704.2969 673.8936,704.6406 Q673.8936,704.9844 673.5498,705.3906 Q673.0498,705.9688 672.2529,706.2969 Q671.1748,706.75 669.8779,706.75 Q668.3623,706.75 667.1592,706.125 Q666.1748,705.625 665.4873,704.5625 Q664.7998,703.4844 664.7998,702.2031 L664.7998,701.0469 Q664.7998,699.7188 665.4092,698.5781 Q666.0342,697.4219 667.1279,696.8125 Q668.2217,696.1875 669.4561,696.1875 Q670.1904,696.1875 670.8311,696.3594 Q671.4873,696.5156 672.0342,696.875 Z " fill="#000000"/><text fill="#000000" font-family="sans-serif" font-size="14" lengthAdjust="spacing" textLength="51.3584" x="689.7686" y="706.7285">Lecturer</text><line style="stroke:#181818;stroke-width:0.5;" x1="566" x2="832.3955" y1="717" y2="717"/><text fill="#000000" font-family="sans-serif" font-size="14" lengthAdjust="spacing" textLength="109.3203" x="571" y="735.5332">+String lecturerID</text><text fill="#000000" font-family="sans-serif" font-size="14" lengthAdjust="spacing" textLength="119.458" x="571" y="753.1426">+String department</text><text fill="#000000" font-family="sans-serif" font-size="14" lengthAdjust="spacing" textLength="205.0781" x="571" y="770.752">+List&lt;Module&gt; assignedModules</text><text fill="#000000" font-family="sans-serif" font-size="14" lengthAdjust="spacing" textLength="256.3955" x="571" y="788.3613">+List&lt;Assessment&gt; createdAssessments</text><line style="stroke:#181818;stroke-width:0.5;" x1="566" x2="832.3955" y1="795.4375" y2="795.4375"/></g><!--class Student--><g class="entity" data-qualified-name="Student" data-source-line="29" id="ent0006"><rect fill="#F1F1F1" height="48" rx="2.5" ry="2.5" style="stroke:#181818;stroke-width:0.5;" width="80.2617" x="656" y="515"/><ellipse cx="671" cy="531" fill="#ADD1B2" rx="11" ry="11" style="stroke:#181818;stroke-width:1;"/><path d="M673.7656,526.875 Q673.9219,526.6563 674.1094,526.5469 Q674.2969,526.4375 674.5156,526.4375 Q674.8906,526.4375 675.125,526.7031 Q675.3594,526.9531 675.3594,527.5625 L675.3594,529.0156 Q675.3594,529.625 675.125,529.8906 Q674.8906,530.1563 674.5156,530.1563 Q674.1719,530.1563 673.9688,529.9531 Q673.7656,529.7656 673.6563,529.25 Q673.6094,528.8906 673.4219,528.7031 Q673.0938,528.3281 672.4844,528.1094 Q671.875,527.8906 671.25,527.8906 Q670.4844,527.8906 669.8438,528.2188 Q669.2188,528.5469 668.7188,529.2969 Q668.2344,530.0469 668.2344,531.0781 L668.2344,532.1719 Q668.2344,533.4063 669.125,534.2344 Q670.0156,535.0469 671.6094,535.0469 Q672.5469,535.0469 673.2031,534.7969 Q673.5938,534.6406 674.0156,534.2031 Q674.2813,533.9375 674.4219,533.8594 Q674.5781,533.7813 674.7813,533.7813 Q675.1094,533.7813 675.3594,534.0469 Q675.625,534.2969 675.625,534.6406 Q675.625,534.9844 675.2813,535.3906 Q674.7813,535.9688 673.9844,536.2969 Q672.9063,536.75 671.6094,536.75 Q670.0938,536.75 668.8906,536.125 Q667.9063,535.625 667.2188,534.5625 Q666.5313,533.4844 666.5313,532.2031 L666.5313,531.0469 Q666.5313,529.7188 667.1406,528.5781 Q667.7656,527.4219 668.8594,526.8125 Q669.9531,526.1875 671.1875,526.1875 Q671.9219,526.1875 672.5625,526.3594 Q673.2188,526.5156 673.7656,526.875 Z " fill="#000000"/><text fill="#000000" font-family="sans-serif" font-size="14" lengthAdjust="spacing" textLength="48.2617" x="685" y="536.7285">Student</text><line style="stroke:#181818;stroke-width:0.5;" x1="657" x2="735.2617" y1="547" y2="547"/><line style="stroke:#181818;stroke-width:0.5;" x1="657" x2="735.2617" y1="555" y2="555"/></g><!--class Module--><g class="entity" data-qualified-name="Module" data-source-line="30" id="ent0007"><rect fill="#F1F1F1" height="118.4375" rx="2.5" ry="2.5" style="stroke:#181818;stroke-width:0.5;" width="143.8994" x="627" y="881"/><ellipse cx="671.7412" cy="897" fill="#ADD1B2" rx="11" ry="11" style="stroke:#181818;stroke-width:1;"/><path d="M674.5068,892.875 Q674.6631,892.6563 674.8506,892.5469 Q675.0381,892.4375 675.2568,892.4375 Q675.6318,892.4375 675.8662,892.7031 Q676.1006,892.9531 676.1006,893.5625 L676.1006,895.0156 Q676.1006,895.625 675.8662,895.8906 Q675.6318,896.1563 675.2568,896.1563 Q674.9131,896.1563 674.71,895.9531 Q674.5068,895.7656 674.3975,895.25 Q674.3506,894.8906 674.1631,894.7031 Q673.835,894.3281 673.2256,894.1094 Q672.6162,893.8906 671.9912,893.8906 Q671.2256,893.8906 670.585,894.2188 Q669.96,894.5469 669.46,895.2969 Q668.9756,896.0469 668.9756,897.0781 L668.9756,898.1719 Q668.9756,899.4063 669.8662,900.2344 Q670.7568,901.0469 672.3506,901.0469 Q673.2881,901.0469 673.9443,900.7969 Q674.335,900.6406 674.7568,900.2031 Q675.0225,899.9375 675.1631,899.8594 Q675.3193,899.7813 675.5225,899.7813 Q675.8506,899.7813 676.1006,900.0469 Q676.3662,900.2969 676.3662,900.6406 Q676.3662,900.9844 676.0225,901.3906 Q675.5225,901.9688 674.7256,902.2969 Q673.6475,902.75 672.3506,902.75 Q670.835,902.75 669.6318,902.125 Q668.6475,901.625 667.96,900.5625 Q667.2725,899.4844 667.2725,898.2031 L667.2725,897.0469 Q667.2725,895.7188 667.8818,894.5781 Q668.5068,893.4219 669.6006,892.8125 Q670.6943,892.1875 671.9287,892.1875 Q672.6631,892.1875 673.3037,892.3594 Q673.96,892.5156 674.5068,892.875 Z " fill="#000000"/><text fill="#000000" font-family="sans-serif" font-size="14" lengthAdjust="spacing" textLength="45.917" x="692.2412" y="902.7285">Module</text><line style="stroke:#181818;stroke-width:0.5;" x1="628" x2="769.8994" y1="913" y2="913"/><text fill="#000000" font-family="sans-serif" font-size="14" lengthAdjust="spacing" textLength="108.5547" x="633" y="931.5332">+String moduleID</text><text fill="#000000" font-family="sans-serif" font-size="14" lengthAdjust="spacing" textLength="131.8994" x="633" y="949.1426">+String moduleName</text><text fill="#000000" font-family="sans-serif" font-size="14" lengthAdjust="spacing" textLength="128.0234" x="633" y="966.752">+String moduleCode</text><text fill="#000000" font-family="sans-serif" font-size="14" lengthAdjust="spacing" textLength="98.4307" x="633" y="984.3613">+int creditHours</text><line style="stroke:#181818;stroke-width:0.5;" x1="628" x2="769.8994" y1="991.4375" y2="991.4375"/></g><!--class ClassModule--><g class="entity" data-qualified-name="ClassModule" data-source-line="36" id="ent0008"><rect fill="#F1F1F1" height="136.0469" rx="2.5" ry="2.5" style="stroke:#181818;stroke-width:0.5;" width="215.54" x="270" y="471"/><ellipse cx="333.0581" cy="487" fill="#ADD1B2" rx="11" ry="11" style="stroke:#181818;stroke-width:1;"/><path d="M335.8237,482.875 Q335.98,482.6563 336.1675,482.5469 Q336.355,482.4375 336.5737,482.4375 Q336.9487,482.4375 337.1831,482.7031 Q337.4175,482.9531 337.4175,483.5625 L337.4175,485.0156 Q337.4175,485.625 337.1831,485.8906 Q336.9487,486.1563 336.5737,486.1563 Q336.23,486.1563 336.0269,485.9531 Q335.8237,485.7656 335.7144,485.25 Q335.6675,484.8906 335.48,484.7031 Q335.1519,484.3281 334.5425,484.1094 Q333.9331,483.8906 333.3081,483.8906 Q332.5425,483.8906 331.9019,484.2188 Q331.2769,484.5469 330.7769,485.2969 Q330.2925,486.0469 330.2925,487.0781 L330.2925,488.1719 Q330.2925,489.4063 331.1831,490.2344 Q332.0737,491.0469 333.6675,491.0469 Q334.605,491.0469 335.2612,490.7969 Q335.6519,490.6406 336.0737,490.2031 Q336.3394,489.9375 336.48,489.8594 Q336.6362,489.7813 336.8394,489.7813 Q337.1675,489.7813 337.4175,490.0469 Q337.6831,490.2969 337.6831,490.6406 Q337.6831,490.9844 337.3394,491.3906 Q336.8394,491.9688 336.0425,492.2969 Q334.9644,492.75 333.6675,492.75 Q332.1519,492.75 330.9487,492.125 Q329.9644,491.625 329.2769,490.5625 Q328.5894,489.4844 328.5894,488.2031 L328.5894,487.0469 Q328.5894,485.7188 329.1987,484.5781 Q329.8237,483.4219 330.9175,482.8125 Q332.0112,482.1875 333.2456,482.1875 Q333.98,482.1875 334.6206,482.3594 Q335.2769,482.5156 335.8237,482.875 Z " fill="#000000"/><text fill="#000000" font-family="sans-serif" font-size="14" lengthAdjust="spacing" textLength="80.9238" x="353.5581" y="492.7285">ClassModule</text><line style="stroke:#181818;stroke-width:0.5;" x1="271" x2="484.54" y1="503" y2="503"/><text fill="#000000" font-family="sans-serif" font-size="14" lengthAdjust="spacing" textLength="94.5342" x="276" y="521.5332">+String classID</text><text fill="#000000" font-family="sans-serif" font-size="14" lengthAdjust="spacing" textLength="117.8789" x="276" y="539.1426">+String className</text><text fill="#000000" font-family="sans-serif" font-size="14" lengthAdjust="spacing" textLength="108.5547" x="276" y="556.752">+String moduleID</text><text fill="#000000" font-family="sans-serif" font-size="14" lengthAdjust="spacing" textLength="110.1064" x="276" y="574.3613">+Lecturer lecturer</text><text fill="#000000" font-family="sans-serif" font-size="14" lengthAdjust="spacing" textLength="203.54" x="276" y="591.9707">+List&lt;Student&gt; enrolledStudents</text><line style="stroke:#181818;stroke-width:0.5;" x1="271" x2="484.54" y1="599.0469" y2="599.0469"/></g><!--class Assessment--><g class="entity" data-qualified-name="Assessment" data-source-line="43" id="ent0009"><rect fill="#F1F1F1" height="136.0469" rx="2.5" ry="2.5" style="stroke:#181818;stroke-width:0.5;" width="237.2578" x="842.5" y="471"/><ellipse cx="918.7549" cy="487" fill="#ADD1B2" rx="11" ry="11" style="stroke:#181818;stroke-width:1;"/><path d="M921.5205,482.875 Q921.6768,482.6563 921.8643,482.5469 Q922.0518,482.4375 922.2705,482.4375 Q922.6455,482.4375 922.8799,482.7031 Q923.1143,482.9531 923.1143,483.5625 L923.1143,485.0156 Q923.1143,485.625 922.8799,485.8906 Q922.6455,486.1563 922.2705,486.1563 Q921.9268,486.1563 921.7236,485.9531 Q921.5205,485.7656 921.4111,485.25 Q921.3643,484.8906 921.1768,484.7031 Q920.8486,484.3281 920.2393,484.1094 Q919.6299,483.8906 919.0049,483.8906 Q918.2393,483.8906 917.5986,484.2188 Q916.9736,484.5469 916.4736,485.2969 Q915.9893,486.0469 915.9893,487.0781 L915.9893,488.1719 Q915.9893,489.4063 916.8799,490.2344 Q917.7705,491.0469 919.3643,491.0469 Q920.3018,491.0469 920.958,490.7969 Q921.3486,490.6406 921.7705,490.2031 Q922.0361,489.9375 922.1768,489.8594 Q922.333,489.7813 922.5361,489.7813 Q922.8643,489.7813 923.1143,490.0469 Q923.3799,490.2969 923.3799,490.6406 Q923.3799,490.9844 923.0361,491.3906 Q922.5361,491.9688 921.7393,492.2969 Q920.6611,492.75 919.3643,492.75 Q917.8486,492.75 916.6455,492.125 Q915.6611,491.625 914.9736,490.5625 Q914.2861,489.4844 914.2861,488.2031 L914.2861,487.0469 Q914.2861,485.7188 914.8955,484.5781 Q915.5205,483.4219 916.6143,482.8125 Q917.708,482.1875 918.9424,482.1875 Q919.6768,482.1875 920.3174,482.3594 Q920.9736,482.5156 921.5205,482.875 Z " fill="#000000"/><text fill="#000000" font-family="sans-serif" font-size="14" lengthAdjust="spacing" textLength="76.248" x="939.2549" y="492.7285">Assessment</text><line style="stroke:#181818;stroke-width:0.5;" x1="843.5" x2="1078.7578" y1="503" y2="503"/><text fill="#000000" font-family="sans-serif" font-size="14" lengthAdjust="spacing" textLength="137.334" x="848.5" y="521.5332">+String assessmentID</text><text fill="#000000" font-family="sans-serif" font-size="14" lengthAdjust="spacing" textLength="160.6787" x="848.5" y="539.1426">+String assessmentName</text><text fill="#000000" font-family="sans-serif" font-size="14" lengthAdjust="spacing" textLength="225.2578" x="848.5" y="556.752">+AssessmentType assessmentType</text><text fill="#000000" font-family="sans-serif" font-size="14" lengthAdjust="spacing" textLength="103.8994" x="848.5" y="574.3613">+Module module</text><text fill="#000000" font-family="sans-serif" font-size="14" lengthAdjust="spacing" textLength="126.458" x="848.5" y="591.9707">+Lecturer createdBy</text><line style="stroke:#181818;stroke-width:0.5;" x1="843.5" x2="1078.7578" y1="599.0469" y2="599.0469"/></g><!--class AssessmentType--><g class="entity" data-qualified-name="AssessmentType" data-source-line="50" id="ent0010"><rect fill="#F1F1F1" height="48" rx="2.5" ry="2.5" style="stroke:#181818;stroke-width:0.5;" width="139.3721" x="263.5" y="42"/><ellipse cx="278.5" cy="58" fill="#ADD1B2" rx="11" ry="11" style="stroke:#181818;stroke-width:1;"/><path d="M281.2656,53.875 Q281.4219,53.6563 281.6094,53.5469 Q281.7969,53.4375 282.0156,53.4375 Q282.3906,53.4375 282.625,53.7031 Q282.8594,53.9531 282.8594,54.5625 L282.8594,56.0156 Q282.8594,56.625 282.625,56.8906 Q282.3906,57.1563 282.0156,57.1563 Q281.6719,57.1563 281.4688,56.9531 Q281.2656,56.7656 281.1563,56.25 Q281.1094,55.8906 280.9219,55.7031 Q280.5938,55.3281 279.9844,55.1094 Q279.375,54.8906 278.75,54.8906 Q277.9844,54.8906 277.3438,55.2188 Q276.7188,55.5469 276.2188,56.2969 Q275.7344,57.0469 275.7344,58.0781 L275.7344,59.1719 Q275.7344,60.4063 276.625,61.2344 Q277.5156,62.0469 279.1094,62.0469 Q280.0469,62.0469 280.7031,61.7969 Q281.0938,61.6406 281.5156,61.2031 Q281.7813,60.9375 281.9219,60.8594 Q282.0781,60.7813 282.2813,60.7813 Q282.6094,60.7813 282.8594,61.0469 Q283.125,61.2969 283.125,61.6406 Q283.125,61.9844 282.7813,62.3906 Q282.2813,62.9688 281.4844,63.2969 Q280.4063,63.75 279.1094,63.75 Q277.5938,63.75 276.3906,63.125 Q275.4063,62.625 274.7188,61.5625 Q274.0313,60.4844 274.0313,59.2031 L274.0313,58.0469 Q274.0313,56.7188 274.6406,55.5781 Q275.2656,54.4219 276.3594,53.8125 Q277.4531,53.1875 278.6875,53.1875 Q279.4219,53.1875 280.0625,53.3594 Q280.7188,53.5156 281.2656,53.875 Z " fill="#000000"/><text fill="#000000" font-family="sans-serif" font-size="14" lengthAdjust="spacing" textLength="107.3721" x="292.5" y="63.7285">AssessmentType</text><line style="stroke:#181818;stroke-width:0.5;" x1="264.5" x2="401.8721" y1="74" y2="74"/><line style="stroke:#181818;stroke-width:0.5;" x1="264.5" x2="401.8721" y1="82" y2="82"/></g><!--class Feedback--><g class="entity" data-qualified-name="Feedback" data-source-line="51" id="ent0011"><rect fill="#F1F1F1" height="118.4375" rx="2.5" ry="2.5" style="stroke:#181818;stroke-width:0.5;" width="149.334" x="437.5" y="7"/><ellipse cx="477.6332" cy="23" fill="#ADD1B2" rx="11" ry="11" style="stroke:#181818;stroke-width:1;"/><path d="M480.3988,18.875 Q480.5551,18.6563 480.7426,18.5469 Q480.9301,18.4375 481.1488,18.4375 Q481.5238,18.4375 481.7582,18.7031 Q481.9926,18.9531 481.9926,19.5625 L481.9926,21.0156 Q481.9926,21.625 481.7582,21.8906 Q481.5238,22.1563 481.1488,22.1563 Q480.8051,22.1563 480.602,21.9531 Q480.3988,21.7656 480.2895,21.25 Q480.2426,20.8906 480.0551,20.7031 Q479.727,20.3281 479.1176,20.1094 Q478.5082,19.8906 477.8832,19.8906 Q477.1176,19.8906 476.477,20.2188 Q475.852,20.5469 475.352,21.2969 Q474.8676,22.0469 474.8676,23.0781 L474.8676,24.1719 Q474.8676,25.4063 475.7582,26.2344 Q476.6488,27.0469 478.2426,27.0469 Q479.1801,27.0469 479.8363,26.7969 Q480.227,26.6406 480.6488,26.2031 Q480.9145,25.9375 481.0551,25.8594 Q481.2113,25.7813 481.4145,25.7813 Q481.7426,25.7813 481.9926,26.0469 Q482.2582,26.2969 482.2582,26.6406 Q482.2582,26.9844 481.9145,27.3906 Q481.4145,27.9688 480.6176,28.2969 Q479.5395,28.75 478.2426,28.75 Q476.727,28.75 475.5238,28.125 Q474.5395,27.625 473.852,26.5625 Q473.1645,25.4844 473.1645,24.2031 L473.1645,23.0469 Q473.1645,21.7188 473.7738,20.5781 Q474.3988,19.4219 475.4926,18.8125 Q476.5863,18.1875 477.8207,18.1875 Q478.5551,18.1875 479.1957,18.3594 Q479.852,18.5156 480.3988,18.875 Z " fill="#000000"/><text fill="#000000" font-family="sans-serif" font-size="14" lengthAdjust="spacing" textLength="61.4824" x="497.2184" y="28.7285">Feedback</text><line style="stroke:#181818;stroke-width:0.5;" x1="438.5" x2="585.834" y1="39" y2="39"/><text fill="#000000" font-family="sans-serif" font-size="14" lengthAdjust="spacing" textLength="119.458" x="443.5" y="57.5332">+String feedbackID</text><text fill="#000000" font-family="sans-serif" font-size="14" lengthAdjust="spacing" textLength="137.334" x="443.5" y="75.1426">+String assessmentID</text><text fill="#000000" font-family="sans-serif" font-size="14" lengthAdjust="spacing" textLength="108.5615" x="443.5" y="92.752">+String studentID</text><text fill="#000000" font-family="sans-serif" font-size="14" lengthAdjust="spacing" textLength="109.3203" x="443.5" y="110.3613">+String lecturerID</text><line style="stroke:#181818;stroke-width:0.5;" x1="438.5" x2="585.834" y1="117.4375" y2="117.4375"/></g><!--class SystemManager--><g class="entity" data-qualified-name="SystemManager" data-source-line="57" id="ent0012"><rect fill="#F1F1F1" height="118.4375" rx="2.5" ry="2.5" style="stroke:#181818;stroke-width:0.5;" width="220.1475" x="686" y="7"/><ellipse cx="740.8584" cy="23" fill="#ADD1B2" rx="11" ry="11" style="stroke:#181818;stroke-width:1;"/><path d="M743.624,18.875 Q743.7803,18.6563 743.9678,18.5469 Q744.1553,18.4375 744.374,18.4375 Q744.749,18.4375 744.9834,18.7031 Q745.2178,18.9531 745.2178,19.5625 L745.2178,21.0156 Q745.2178,21.625 744.9834,21.8906 Q744.749,22.1563 744.374,22.1563 Q744.0303,22.1563 743.8271,21.9531 Q743.624,21.7656 743.5146,21.25 Q743.4678,20.8906 743.2803,20.7031 Q742.9521,20.3281 742.3428,20.1094 Q741.7334,19.8906 741.1084,19.8906 Q740.3428,19.8906 739.7021,20.2188 Q739.0771,20.5469 738.5771,21.2969 Q738.0928,22.0469 738.0928,23.0781 L738.0928,24.1719 Q738.0928,25.4063 738.9834,26.2344 Q739.874,27.0469 741.4678,27.0469 Q742.4053,27.0469 743.0615,26.7969 Q743.4521,26.6406 743.874,26.2031 Q744.1396,25.9375 744.2803,25.8594 Q744.4365,25.7813 744.6396,25.7813 Q744.9678,25.7813 745.2178,26.0469 Q745.4834,26.2969 745.4834,26.6406 Q745.4834,26.9844 745.1396,27.3906 Q744.6396,27.9688 743.8428,28.2969 Q742.7646,28.75 741.4678,28.75 Q739.9521,28.75 738.749,28.125 Q737.7646,27.625 737.0771,26.5625 Q736.3896,25.4844 736.3896,24.2031 L736.3896,23.0469 Q736.3896,21.7188 736.999,20.5781 Q737.624,19.4219 738.7178,18.8125 Q739.8115,18.1875 741.0459,18.1875 Q741.7803,18.1875 742.4209,18.3594 Q743.0771,18.5156 743.624,18.875 Z " fill="#000000"/><text fill="#000000" font-family="sans-serif" font-size="14" lengthAdjust="spacing" textLength="101.9307" x="761.3584" y="28.7285">SystemManager</text><line style="stroke:#181818;stroke-width:0.5;" x1="687" x2="905.1475" y1="39" y2="39"/><text fill="#000000" font-family="sans-serif" font-size="14" lengthAdjust="spacing" textLength="113.9961" x="692" y="57.5332">+List&lt;User&gt; users</text><text fill="#000000" font-family="sans-serif" font-size="14" lengthAdjust="spacing" textLength="149.0371" x="692" y="75.1426">+List&lt;Module&gt; modules</text><text fill="#000000" font-family="sans-serif" font-size="14" lengthAdjust="spacing" textLength="177.8096" x="692" y="92.752">+List&lt;ClassModule&gt; classes</text><text fill="#000000" font-family="sans-serif" font-size="14" lengthAdjust="spacing" textLength="208.1475" x="692" y="110.3613">+List&lt;Assessment&gt; assessments</text><line style="stroke:#181818;stroke-width:0.5;" x1="687" x2="905.1475" y1="117.4375" y2="117.4375"/></g><!--class FileManager--><g class="entity" data-qualified-name="FileManager" data-source-line="63" id="ent0013"><rect fill="#F1F1F1" height="48" rx="2.5" ry="2.5" style="stroke:#181818;stroke-width:0.5;" width="109.8135" x="278" y="274"/><ellipse cx="293" cy="290" fill="#ADD1B2" rx="11" ry="11" style="stroke:#181818;stroke-width:1;"/><path d="M295.7656,285.875 Q295.9219,285.6563 296.1094,285.5469 Q296.2969,285.4375 296.5156,285.4375 Q296.8906,285.4375 297.125,285.7031 Q297.3594,285.9531 297.3594,286.5625 L297.3594,288.0156 Q297.3594,288.625 297.125,288.8906 Q296.8906,289.1563 296.5156,289.1563 Q296.1719,289.1563 295.9688,288.9531 Q295.7656,288.7656 295.6563,288.25 Q295.6094,287.8906 295.4219,287.7031 Q295.0938,287.3281 294.4844,287.1094 Q293.875,286.8906 293.25,286.8906 Q292.4844,286.8906 291.8438,287.2188 Q291.2188,287.5469 290.7188,288.2969 Q290.2344,289.0469 290.2344,290.0781 L290.2344,291.1719 Q290.2344,292.4063 291.125,293.2344 Q292.0156,294.0469 293.6094,294.0469 Q294.5469,294.0469 295.2031,293.7969 Q295.5938,293.6406 296.0156,293.2031 Q296.2813,292.9375 296.4219,292.8594 Q296.5781,292.7813 296.7813,292.7813 Q297.1094,292.7813 297.3594,293.0469 Q297.625,293.2969 297.625,293.6406 Q297.625,293.9844 297.2813,294.3906 Q296.7813,294.9688 295.9844,295.2969 Q294.9063,295.75 293.6094,295.75 Q292.0938,295.75 290.8906,295.125 Q289.9063,294.625 289.2188,293.5625 Q288.5313,292.4844 288.5313,291.2031 L288.5313,290.0469 Q288.5313,288.7188 289.1406,287.5781 Q289.7656,286.4219 290.8594,285.8125 Q291.9531,285.1875 293.1875,285.1875 Q293.9219,285.1875 294.5625,285.3594 Q295.2188,285.5156 295.7656,285.875 Z " fill="#000000"/><text fill="#000000" font-family="sans-serif" font-size="14" lengthAdjust="spacing" textLength="77.8135" x="307" y="295.7285">FileManager</text><line style="stroke:#181818;stroke-width:0.5;" x1="279" x2="386.8135" y1="306" y2="306"/><line style="stroke:#181818;stroke-width:0.5;" x1="279" x2="386.8135" y1="314" y2="314"/></g><!--class GradingSystem--><g class="entity" data-qualified-name="GradingSystem" data-source-line="64" id="ent0014"><rect fill="#F1F1F1" height="48" rx="2.5" ry="2.5" style="stroke:#181818;stroke-width:0.5;" width="128.4824" x="1181" y="42"/><ellipse cx="1196" cy="58" fill="#ADD1B2" rx="11" ry="11" style="stroke:#181818;stroke-width:1;"/><path d="M1198.7656,53.875 Q1198.9219,53.6563 1199.1094,53.5469 Q1199.2969,53.4375 1199.5156,53.4375 Q1199.8906,53.4375 1200.125,53.7031 Q1200.3594,53.9531 1200.3594,54.5625 L1200.3594,56.0156 Q1200.3594,56.625 1200.125,56.8906 Q1199.8906,57.1563 1199.5156,57.1563 Q1199.1719,57.1563 1198.9688,56.9531 Q1198.7656,56.7656 1198.6563,56.25 Q1198.6094,55.8906 1198.4219,55.7031 Q1198.0938,55.3281 1197.4844,55.1094 Q1196.875,54.8906 1196.25,54.8906 Q1195.4844,54.8906 1194.8438,55.2188 Q1194.2188,55.5469 1193.7188,56.2969 Q1193.2344,57.0469 1193.2344,58.0781 L1193.2344,59.1719 Q1193.2344,60.4063 1194.125,61.2344 Q1195.0156,62.0469 1196.6094,62.0469 Q1197.5469,62.0469 1198.2031,61.7969 Q1198.5938,61.6406 1199.0156,61.2031 Q1199.2813,60.9375 1199.4219,60.8594 Q1199.5781,60.7813 1199.7813,60.7813 Q1200.1094,60.7813 1200.3594,61.0469 Q1200.625,61.2969 1200.625,61.6406 Q1200.625,61.9844 1200.2813,62.3906 Q1199.7813,62.9688 1198.9844,63.2969 Q1197.9063,63.75 1196.6094,63.75 Q1195.0938,63.75 1193.8906,63.125 Q1192.9063,62.625 1192.2188,61.5625 Q1191.5313,60.4844 1191.5313,59.2031 L1191.5313,58.0469 Q1191.5313,56.7188 1192.1406,55.5781 Q1192.7656,54.4219 1193.8594,53.8125 Q1194.9531,53.1875 1196.1875,53.1875 Q1196.9219,53.1875 1197.5625,53.3594 Q1198.2188,53.5156 1198.7656,53.875 Z " fill="#000000"/><text fill="#000000" font-family="sans-serif" font-size="14" lengthAdjust="spacing" textLength="96.4824" x="1210" y="63.7285">GradingSystem</text><line style="stroke:#181818;stroke-width:0.5;" x1="1182" x2="1308.4824" y1="74" y2="74"/><line style="stroke:#181818;stroke-width:0.5;" x1="1182" x2="1308.4824" y1="82" y2="82"/></g><!--class GradingScale--><g class="entity" data-qualified-name="GradingScale" data-source-line="65" id="ent0015"><rect fill="#F1F1F1" height="48" rx="2.5" ry="2.5" style="stroke:#181818;stroke-width:0.5;" width="116.8271" x="1186.5" y="274"/><ellipse cx="1201.5" cy="290" fill="#ADD1B2" rx="11" ry="11" style="stroke:#181818;stroke-width:1;"/><path d="M1204.2656,285.875 Q1204.4219,285.6563 1204.6094,285.5469 Q1204.7969,285.4375 1205.0156,285.4375 Q1205.3906,285.4375 1205.625,285.7031 Q1205.8594,285.9531 1205.8594,286.5625 L1205.8594,288.0156 Q1205.8594,288.625 1205.625,288.8906 Q1205.3906,289.1563 1205.0156,289.1563 Q1204.6719,289.1563 1204.4688,288.9531 Q1204.2656,288.7656 1204.1563,288.25 Q1204.1094,287.8906 1203.9219,287.7031 Q1203.5938,287.3281 1202.9844,287.1094 Q1202.375,286.8906 1201.75,286.8906 Q1200.9844,286.8906 1200.3438,287.2188 Q1199.7188,287.5469 1199.2188,288.2969 Q1198.7344,289.0469 1198.7344,290.0781 L1198.7344,291.1719 Q1198.7344,292.4063 1199.625,293.2344 Q1200.5156,294.0469 1202.1094,294.0469 Q1203.0469,294.0469 1203.7031,293.7969 Q1204.0938,293.6406 1204.5156,293.2031 Q1204.7813,292.9375 1204.9219,292.8594 Q1205.0781,292.7813 1205.2813,292.7813 Q1205.6094,292.7813 1205.8594,293.0469 Q1206.125,293.2969 1206.125,293.6406 Q1206.125,293.9844 1205.7813,294.3906 Q1205.2813,294.9688 1204.4844,295.2969 Q1203.4063,295.75 1202.1094,295.75 Q1200.5938,295.75 1199.3906,295.125 Q1198.4063,294.625 1197.7188,293.5625 Q1197.0313,292.4844 1197.0313,291.2031 L1197.0313,290.0469 Q1197.0313,288.7188 1197.6406,287.5781 Q1198.2656,286.4219 1199.3594,285.8125 Q1200.4531,285.1875 1201.6875,285.1875 Q1202.4219,285.1875 1203.0625,285.3594 Q1203.7188,285.5156 1204.2656,285.875 Z " fill="#000000"/><text fill="#000000" font-family="sans-serif" font-size="14" lengthAdjust="spacing" textLength="84.8271" x="1215.5" y="295.7285">GradingScale</text><line style="stroke:#181818;stroke-width:0.5;" x1="1187.5" x2="1302.3271" y1="306" y2="306"/><line style="stroke:#181818;stroke-width:0.5;" x1="1187.5" x2="1302.3271" y1="314" y2="314"/></g><!--reverse link User to AdminStaff--><g class="link" data-entity-1="ent0002" data-entity-2="ent0003" data-link-type="extension" data-source-line="67" id="lnk16"><path codeLine="67" d="M629.5475,426.05 C608.8875,465.55 595.93,490.32 583.08,514.91" fill="none" id="User-backto-AdminStaff" style="stroke:#181818;stroke-width:1;"/><polygon fill="none" points="637.89,410.1,624.2309,423.2692,634.8642,428.8308,637.89,410.1" style="stroke:#181818;stroke-width:1;"/></g><!--reverse link User to AcademicLeader--><g class="link" data-entity-1="ent0002" data-entity-2="ent0004" data-link-type="extension" data-source-line="68" id="lnk17"><path codeLine="68" d="M604.6728,333.7972 C487.5828,378.4772 286.99,455.33 252,471 C245.71,473.82 239.28,476.79 232.83,479.85" fill="none" id="User-backto-AcademicLeader" style="stroke:#181818;stroke-width:1;"/><polygon fill="none" points="621.49,327.38,602.5337,328.1915,606.8119,339.403,621.49,327.38" style="stroke:#181818;stroke-width:1;"/></g><!--reverse link User to Lecturer--><g class="link" data-entity-1="ent0002" data-entity-2="ent0005" data-link-type="extension" data-source-line="69" id="lnk18"><path codeLine="69" d="M743.7225,427.3578 C749.7325,447.3478 749.77,450.97 753,471 C762.63,530.67 764.36,547.63 753,607 C747.94,633.45 737.81,661.31 727.68,684.88" fill="none" id="User-backto-Lecturer" style="stroke:#181818;stroke-width:1;"/><polygon fill="none" points="738.54,410.12,737.9766,429.0853,749.4685,425.6303,738.54,410.12" style="stroke:#181818;stroke-width:1;"/></g><!--reverse link User to Student--><g class="link" data-entity-1="ent0002" data-entity-2="ent0006" data-link-type="extension" data-source-line="70" id="lnk19"><path codeLine="70" d="M696,428.1 C696,467.6 696,490.32 696,514.91" fill="none" id="User-backto-Student" style="stroke:#181818;stroke-width:1;"/><polygon fill="none" points="696,410.1,690,428.1,702,428.1,696,410.1" style="stroke:#181818;stroke-width:1;"/></g><!--reverse link AcademicLeader to Lecturer--><g class="link" data-entity-1="ent0004" data-entity-2="ent0005" data-link-type="aggregation" data-source-line="72" id="lnk20"><path codeLine="72" d="M242.0831,602.9944 C249.0831,606.1444 245.13,604.22 252,607 C354.66,648.49 474.93,684.4 564.84,708.88" fill="none" id="AcademicLeader-backto-Lecturer" style="stroke:#181818;stroke-width:1;"/><polygon fill="none" points="231.14,598.07,234.9701,604.1799,242.0831,602.9944,238.253,596.8845,231.14,598.07" style="stroke:#181818;stroke-width:1;"/><text fill="#000000" font-family="sans-serif" font-size="13" lengthAdjust="spacing" textLength="44.0781" x="374" y="651.4951">assigns</text><text fill="#000000" font-family="sans-serif" font-size="13" lengthAdjust="spacing" textLength="7.23" x="237.1531" y="619.734">1</text><text fill="#000000" font-family="sans-serif" font-size="13" lengthAdjust="spacing" textLength="5.0591" x="551.9296" y="703.8798">*</text></g><!--reverse link AcademicLeader to Module--><g class="link" data-entity-1="ent0004" data-entity-2="ent0007" data-link-type="aggregation" data-source-line="73" id="lnk21"><path codeLine="73" d="M171.091,607.5793 C216.511,665.9293 285.77,745.71 369,803 C449.78,858.6 556.79,897.43 626.73,918.98" fill="none" id="AcademicLeader-backto-Module" style="stroke:#181818;stroke-width:1;"/><polygon fill="none" points="163.72,598.11,164.249,605.3017,171.091,607.5793,170.5619,600.3877,163.72,598.11" style="stroke:#181818;stroke-width:1;"/><text fill="#000000" font-family="sans-serif" font-size="13" lengthAdjust="spacing" textLength="53.479" x="370" y="749.4951">manages</text><text fill="#000000" font-family="sans-serif" font-size="13" lengthAdjust="spacing" textLength="7.23" x="161.5163" y="619.7789">1</text><text fill="#000000" font-family="sans-serif" font-size="13" lengthAdjust="spacing" textLength="5.0591" x="614.0276" y="913.478">*</text></g><!--reverse link Lecturer to Module--><g class="link" data-entity-1="ent0005" data-entity-2="ent0007" data-link-type="aggregation" data-source-line="74" id="lnk22"><path codeLine="74" d="M699,815.21 C699,839.76 699,856.29 699,880.83" fill="none" id="Lecturer-backto-Module" style="stroke:#181818;stroke-width:1;"/><polygon fill="none" points="699,803.21,695,809.21,699,815.21,703,809.21,699,803.21" style="stroke:#181818;stroke-width:1;"/><text fill="#000000" font-family="sans-serif" font-size="13" lengthAdjust="spacing" textLength="101.1753" x="700" y="847.4951">assignedModules</text><text fill="#000000" font-family="sans-serif" font-size="13" lengthAdjust="spacing" textLength="5.0591" x="693.6748" y="824.8911">*</text><text fill="#000000" font-family="sans-serif" font-size="13" lengthAdjust="spacing" textLength="5.0591" x="693.705" y="870.1335">*</text></g><!--reverse link ClassModule to Module--><g class="link" data-entity-1="ent0008" data-entity-2="ent0007" data-link-type="aggregation" data-source-line="75" id="lnk23"><path codeLine="75" d="M402.9066,618.3814 C422.9866,675.0714 453.59,744.81 503,803 C537.31,843.41 586.31,877.41 626.73,901.31" fill="none" id="ClassModule-backto-Module" style="stroke:#181818;stroke-width:1;"/><polygon fill="none" points="398.9,607.07,397.1328,614.0612,402.9066,618.3814,404.6737,611.3902,398.9,607.07" style="stroke:#181818;stroke-width:1;"/><text fill="#000000" font-family="sans-serif" font-size="13" lengthAdjust="spacing" textLength="42.6372" x="504" y="749.4951">module</text><text fill="#000000" font-family="sans-serif" font-size="13" lengthAdjust="spacing" textLength="5.0591" x="395.8243" y="628.4255">*</text><text fill="#000000" font-family="sans-serif" font-size="13" lengthAdjust="spacing" textLength="7.23" x="611.9333" y="893.9858">1</text></g><!--reverse link ClassModule to Lecturer--><g class="link" data-entity-1="ent0008" data-entity-2="ent0005" data-link-type="aggregation" data-source-line="76" id="lnk24"><path codeLine="76" d="M497.109,604.3821 C502.729,607.0921 497.51,604.51 503,607 C537.59,622.67 550.62,617.17 583,637 C604.64,650.25 625.86,667.86 644.12,684.92" fill="none" id="ClassModule-backto-Lecturer" style="stroke:#181818;stroke-width:1;"/><polygon fill="none" points="486.3,599.17,489.9671,605.3791,497.109,604.3821,493.4419,598.1731,486.3,599.17" style="stroke:#181818;stroke-width:1;"/><text fill="#000000" font-family="sans-serif" font-size="13" lengthAdjust="spacing" textLength="43.3481" x="609" y="651.4951">lecturer</text><text fill="#000000" font-family="sans-serif" font-size="13" lengthAdjust="spacing" textLength="7.23" x="493.4843" y="600.017">1</text><text fill="#000000" font-family="sans-serif" font-size="13" lengthAdjust="spacing" textLength="21.6836" x="615.1694" y="674.2345">0..1</text></g><!--reverse link Assessment to Module--><g class="link" data-entity-1="ent0009" data-entity-2="ent0007" data-link-type="aggregation" data-source-line="77" id="lnk25"><path codeLine="77" d="M939.5646,618.6712 C918.1446,687.7212 879.7,782.98 810,851 C797.94,862.77 784.39,874.54 771.01,885.46" fill="none" id="Assessment-backto-Module" style="stroke:#181818;stroke-width:1;"/><polygon fill="none" points="943.12,607.21,937.5219,611.7555,939.5646,618.6712,945.1627,614.1257,943.12,607.21" style="stroke:#181818;stroke-width:1;"/><text fill="#000000" font-family="sans-serif" font-size="13" lengthAdjust="spacing" textLength="42.6372" x="916" y="749.4951">module</text><text fill="#000000" font-family="sans-serif" font-size="13" lengthAdjust="spacing" textLength="5.0591" x="936.0081" y="628.58">*</text><text fill="#000000" font-family="sans-serif" font-size="13" lengthAdjust="spacing" textLength="7.23" x="778.814" y="876.5012">1</text></g><!--reverse link Assessment to Lecturer--><g class="link" data-entity-1="ent0009" data-entity-2="ent0005" data-link-type="aggregation" data-source-line="78" id="lnk26"><path codeLine="78" d="M866.8497,614.5709 C846.8097,630.3409 834.91,639.61 815,655 C802.4,664.74 788.98,675.02 775.9,684.97" fill="none" id="Assessment-backto-Lecturer" style="stroke:#181818;stroke-width:1;"/><polygon fill="none" points="876.28,607.15,869.0912,607.717,866.8497,614.5709,874.0385,614.0039,876.28,607.15" style="stroke:#181818;stroke-width:1;"/><text fill="#000000" font-family="sans-serif" font-size="13" lengthAdjust="spacing" textLength="58.5317" x="836" y="651.4951">createdBy</text><text fill="#000000" font-family="sans-serif" font-size="13" lengthAdjust="spacing" textLength="7.23" x="860.1809" y="628.5138">1</text><text fill="#000000" font-family="sans-serif" font-size="13" lengthAdjust="spacing" textLength="21.6836" x="763.0101" y="674.2906">0..1</text></g><!--reverse link GradingSystem to GradingScale--><g class="link" data-entity-1="ent0014" data-entity-2="ent0015" data-link-type="composition" data-source-line="79" id="lnk27"><path codeLine="79" d="M1245,102.32 C1245,146.52 1245,229.98 1245,273.96" fill="none" id="GradingSystem-backto-GradingScale" style="stroke:#181818;stroke-width:1;"/><polygon fill="#181818" points="1245,90.32,1241,96.32,1245,102.32,1249,96.32,1245,90.32" style="stroke:#181818;stroke-width:1;"/><text fill="#000000" font-family="sans-serif" font-size="13" lengthAdjust="spacing" textLength="7.23" x="1237.1614" y="111.3298">1</text><text fill="#000000" font-family="sans-serif" font-size="13" lengthAdjust="spacing" textLength="5.0591" x="1239.3891" y="263.2899">*</text></g><!--reverse link SystemManager to User--><g class="link" data-entity-1="ent0012" data-entity-2="ent0002" data-link-type="composition" data-source-line="81" id="lnk28"><path codeLine="81" d="M765.982,136.0434 C757.932,154.5434 753.54,164.66 744.42,185.63" fill="none" id="SystemManager-backto-User" style="stroke:#181818;stroke-width:1;"/><polygon fill="#181818" points="770.77,125.04,764.7082,128.9457,765.982,136.0434,772.0438,132.1377,770.77,125.04" style="stroke:#181818;stroke-width:1;"/><text fill="#000000" font-family="sans-serif" font-size="13" lengthAdjust="spacing" textLength="7.23" x="760.0943" y="147.1191">1</text><text fill="#000000" font-family="sans-serif" font-size="13" lengthAdjust="spacing" textLength="5.0591" x="742.4951" y="175.0464">*</text></g><!--reverse link SystemManager to Module--><g class="link" data-entity-1="ent0012" data-entity-2="ent0007" data-link-type="composition" data-source-line="82" id="lnk29"><path codeLine="82" d="M917.8078,96.6763 C1016.0878,127.2663 1133,185.08 1133,297 C1133,297 1133,297 1133,745 C1133,901.61 894.56,932.64 771.15,938.21" fill="none" id="SystemManager-backto-Module" style="stroke:#181818;stroke-width:1;"/><polygon fill="#181818" points="906.35,93.11,910.8901,98.7124,917.8078,96.6763,913.2677,91.0739,906.35,93.11" style="stroke:#181818;stroke-width:1;"/><text fill="#000000" font-family="sans-serif" font-size="13" lengthAdjust="spacing" textLength="7.23" x="914.0021" y="91.8862">1</text><text fill="#000000" font-family="sans-serif" font-size="13" lengthAdjust="spacing" textLength="5.0591" x="778.8565" y="934.6911">*</text></g><!--reverse link SystemManager to ClassModule--><g class="link" data-entity-1="ent0012" data-entity-2="ent0008" data-link-type="composition" data-source-line="83" id="lnk30"><path codeLine="83" d="M675.7948,129.9031 C647.2148,147.5831 627.97,162.41 604,186 C517.56,271.07 447.72,394.95 409.61,470.8" fill="none" id="SystemManager-backto-ClassModule" style="stroke:#181818;stroke-width:1;"/><polygon fill="#181818" points="686,123.59,678.7931,123.3448,675.7948,129.9031,683.0018,130.1482,686,123.59" style="stroke:#181818;stroke-width:1;"/><text fill="#000000" font-family="sans-serif" font-size="13" lengthAdjust="spacing" textLength="7.23" x="670.6679" y="124.7237">1</text><text fill="#000000" font-family="sans-serif" font-size="13" lengthAdjust="spacing" textLength="5.0591" x="407.8223" y="459.9774">*</text></g><!--reverse link SystemManager to Assessment--><g class="link" data-entity-1="ent0012" data-entity-2="ent0009" data-link-type="composition" data-source-line="84" id="lnk31"><path codeLine="84" d="M820.3669,136.5554 C851.0569,224.1754 905.01,378.18 937.46,470.79" fill="none" id="SystemManager-backto-Assessment" style="stroke:#181818;stroke-width:1;"/><polygon fill="#181818" points="816.4,125.23,814.6083,132.215,820.3669,136.5554,822.1586,129.5704,816.4,125.23" style="stroke:#181818;stroke-width:1;"/><text fill="#000000" font-family="sans-serif" font-size="13" lengthAdjust="spacing" textLength="7.23" x="811.4647" y="146.9135">1</text><text fill="#000000" font-family="sans-serif" font-size="13" lengthAdjust="spacing" textLength="5.0591" x="929.601" y="459.9663">*</text></g><?plantuml-src VLJ9Rjim4BthAmWV4oI8hq4Wm4sHDe2JYziFeCMnIuIBG589tENVIt4HEOhiYms-UJFpPfDzuwgdXahI2MhjnZd3zuE3vqwh7VyDvAvfWeNyj638duQGwvtdg2CPFF3yTGOeAg62Uk_veGsh892KY-fz68HudNdzqWfU1xa7Kw57K2m2N3b2Zy5ZhxK0gWZj77_7IDyR_Gwi-PShs339rSxHmo437MKWURS5_u-BO-2xuYGeLu4Yy6BDMsxTmnOwDnWmBV7X-541ouYTE2-Q3G9Q8gdocbbyMgygQiWEABj886elbeHYv-mvUBPlh0LhHvUMT0Qe0rQWec7d1ZQ6ZQyO1EcH0K9g8ZGRN0GVDOCy9f-LSVTT3wQaUnn_5x84AqeIaCKSQGYvURbXK-Mff9Q0Cbe8O0aeAaeZa0WwmKX9WRESul_Zr4D569yZ8LKOzIArQHHVJWjYWdS4dm3OddPlIDyXWMVK8TZ6cX5MhTOq_fDr85_2VgOz33qSBxuDLxsmpRDDgsRQnh6TMKEwi7zFN41Adv1lXZAlDYgROHtrxMp2v-ZXxyrDVTOLY4wxCkGXL51U_sRsFLYjLqHx--fgLSxqFXsRlSHEexzFHs-RoNsqVcBDpxS-aCbXNOUDEuLuEVtTxUqQwPrkezhuIr5hsjcWPONHg8B7LQeF3mnlMSqR9t717FLT85HjkC0gPJN_0G00?></g></svg>