<?plantuml 1.2026.1?><svg xmlns="http://www.w3.org/2000/svg" xmlns:xlink="http://www.w3.org/1999/xlink" contentStyleType="text/css" data-diagram-type="CLASS" height="1238px" preserveAspectRatio="none" style="width:1840px;height:1238px;background:#FFFFFF;" version="1.1" viewBox="0 0 1840 1238" width="1840px" zoomAndPan="magnify"><defs/><g><!--class User--><g class="entity" data-qualified-name="User" data-source-line="3" id="ent0002"><rect fill="#F1F1F1" height="206.4844" rx="2.5" ry="2.5" style="stroke:#181818;stroke-width:0.5;" width="145.8477" x="1064" y="365"/><ellipse cx="1117.8945" cy="381" fill="#ADD1B2" rx="11" ry="11" style="stroke:#181818;stroke-width:1;"/><path d="M1120.6602,376.875 Q1120.8164,376.6563 1121.0039,376.5469 Q1121.1914,376.4375 1121.4102,376.4375 Q1121.7852,376.4375 1122.0195,376.7031 Q1122.2539,376.9531 1122.2539,377.5625 L1122.2539,379.0156 Q1122.2539,379.625 1122.0195,379.8906 Q1121.7852,380.1563 1121.4102,380.1563 Q1121.0664,380.1563 1120.8633,379.9531 Q1120.6602,379.7656 1120.5508,379.25 Q1120.5039,378.8906 1120.3164,378.7031 Q1119.9883,378.3281 1119.3789,378.1094 Q1118.7695,377.8906 1118.1445,377.8906 Q1117.3789,377.8906 1116.7383,378.2188 Q1116.1133,378.5469 1115.6133,379.2969 Q1115.1289,380.0469 1115.1289,381.0781 L1115.1289,382.1719 Q1115.1289,383.4063 1116.0195,384.2344 Q1116.9102,385.0469 1118.5039,385.0469 Q1119.4414,385.0469 1120.0977,384.7969 Q1120.4883,384.6406 1120.9102,384.2031 Q1121.1758,383.9375 1121.3164,383.8594 Q1121.4727,383.7813 1121.6758,383.7813 Q1122.0039,383.7813 1122.2539,384.0469 Q1122.5195,384.2969 1122.5195,384.6406 Q1122.5195,384.9844 1122.1758,385.3906 Q1121.6758,385.9688 1120.8789,386.2969 Q1119.8008,386.75 1118.5039,386.75 Q1116.9883,386.75 1115.7852,386.125 Q1114.8008,385.625 1114.1133,384.5625 Q1113.4258,383.4844 1113.4258,382.2031 L1113.4258,381.0469 Q1113.4258,379.7188 1114.0352,378.5781 Q1114.6602,377.4219 1115.7539,376.8125 Q1116.8477,376.1875 1118.082,376.1875 Q1118.8164,376.1875 1119.457,376.3594 Q1120.1133,376.5156 1120.6602,376.875 Z " fill="#000000"/><text fill="#000000" font-family="sans-serif" font-size="14" lengthAdjust="spacing" textLength="29.5586" x="1138.3945" y="386.7285">User</text><line style="stroke:#181818;stroke-width:0.5;" x1="1065" x2="1208.8477" y1="397" y2="397"/><text fill="#000000" font-family="sans-serif" font-size="14" lengthAdjust="spacing" textLength="86.3584" x="1070" y="415.5332">-String userID</text><text fill="#000000" font-family="sans-serif" font-size="14" lengthAdjust="spacing" textLength="107.3789" x="1070" y="433.1426">-String username</text><text fill="#000000" font-family="sans-serif" font-size="14" lengthAdjust="spacing" textLength="105.041" x="1070" y="450.752">-String password</text><text fill="#000000" font-family="sans-serif" font-size="14" lengthAdjust="spacing" textLength="78.5791" x="1070" y="468.3613">-String email</text><text fill="#000000" font-family="sans-serif" font-size="14" lengthAdjust="spacing" textLength="100.3652" x="1070" y="485.9707">-String fullName</text><text fill="#000000" font-family="sans-serif" font-size="14" lengthAdjust="spacing" textLength="133.8477" x="1070" y="503.5801">-String phoneNumber</text><text fill="#000000" font-family="sans-serif" font-size="14" lengthAdjust="spacing" textLength="88.7168" x="1070" y="521.1895">-String gender</text><text fill="#000000" font-family="sans-serif" font-size="14" lengthAdjust="spacing" textLength="46.6963" x="1070" y="538.7988">-int age</text><text fill="#000000" font-family="sans-serif" font-size="14" lengthAdjust="spacing" textLength="68.4688" x="1070" y="556.4082">-String role</text><line style="stroke:#181818;stroke-width:0.5;" x1="1065" x2="1208.8477" y1="563.4844" y2="563.4844"/></g><!--class AdminStaff--><g class="entity" data-qualified-name="AdminStaff" data-source-line="15" id="ent0003"><rect fill="#F1F1F1" height="48" rx="2.5" ry="2.5" style="stroke:#181818;stroke-width:0.5;" width="100.4756" x="926" y="685"/><ellipse cx="941" cy="701" fill="#ADD1B2" rx="11" ry="11" style="stroke:#181818;stroke-width:1;"/><path d="M943.7656,696.875 Q943.9219,696.6563 944.1094,696.5469 Q944.2969,696.4375 944.5156,696.4375 Q944.8906,696.4375 945.125,696.7031 Q945.3594,696.9531 945.3594,697.5625 L945.3594,699.0156 Q945.3594,699.625 945.125,699.8906 Q944.8906,700.1563 944.5156,700.1563 Q944.1719,700.1563 943.9688,699.9531 Q943.7656,699.7656 943.6563,699.25 Q943.6094,698.8906 943.4219,698.7031 Q943.0938,698.3281 942.4844,698.1094 Q941.875,697.8906 941.25,697.8906 Q940.4844,697.8906 939.8438,698.2188 Q939.2188,698.5469 938.7188,699.2969 Q938.2344,700.0469 938.2344,701.0781 L938.2344,702.1719 Q938.2344,703.4063 939.125,704.2344 Q940.0156,705.0469 941.6094,705.0469 Q942.5469,705.0469 943.2031,704.7969 Q943.5938,704.6406 944.0156,704.2031 Q944.2813,703.9375 944.4219,703.8594 Q944.5781,703.7813 944.7813,703.7813 Q945.1094,703.7813 945.3594,704.0469 Q945.625,704.2969 945.625,704.6406 Q945.625,704.9844 945.2813,705.3906 Q944.7813,705.9688 943.9844,706.2969 Q942.9063,706.75 941.6094,706.75 Q940.0938,706.75 938.8906,706.125 Q937.9063,705.625 937.2188,704.5625 Q936.5313,703.4844 936.5313,702.2031 L936.5313,701.0469 Q936.5313,699.7188 937.1406,698.5781 Q937.7656,697.4219 938.8594,696.8125 Q939.9531,696.1875 941.1875,696.1875 Q941.9219,696.1875 942.5625,696.3594 Q943.2188,696.5156 943.7656,696.875 Z " fill="#000000"/><text fill="#000000" font-family="sans-serif" font-size="14" lengthAdjust="spacing" textLength="68.4756" x="955" y="706.7285">AdminStaff</text><line style="stroke:#181818;stroke-width:0.5;" x1="927" x2="1025.4756" y1="717" y2="717"/><line style="stroke:#181818;stroke-width:0.5;" x1="927" x2="1025.4756" y1="725" y2="725"/></g><!--class AcademicLeader--><g class="entity" data-qualified-name="AcademicLeader" data-source-line="16" id="ent0004"><rect fill="#F1F1F1" height="118.4375" rx="2.5" ry="2.5" style="stroke:#181818;stroke-width:0.5;" width="224.4473" x="420" y="650"/><ellipse cx="475.4429" cy="666" fill="#ADD1B2" rx="11" ry="11" style="stroke:#181818;stroke-width:1;"/><path d="M478.2085,661.875 Q478.3647,661.6563 478.5522,661.5469 Q478.7397,661.4375 478.9585,661.4375 Q479.3335,661.4375 479.5679,661.7031 Q479.8022,661.9531 479.8022,662.5625 L479.8022,664.0156 Q479.8022,664.625 479.5679,664.8906 Q479.3335,665.1563 478.9585,665.1563 Q478.6147,665.1563 478.4116,664.9531 Q478.2085,664.7656 478.0991,664.25 Q478.0522,663.8906 477.8647,663.7031 Q477.5366,663.3281 476.9272,663.1094 Q476.3179,662.8906 475.6929,662.8906 Q474.9272,662.8906 474.2866,663.2188 Q473.6616,663.5469 473.1616,664.2969 Q472.6772,665.0469 472.6772,666.0781 L472.6772,667.1719 Q472.6772,668.4063 473.5679,669.2344 Q474.4585,670.0469 476.0522,670.0469 Q476.9897,670.0469 477.646,669.7969 Q478.0366,669.6406 478.4585,669.2031 Q478.7241,668.9375 478.8647,668.8594 Q479.021,668.7813 479.2241,668.7813 Q479.5522,668.7813 479.8022,669.0469 Q480.0679,669.2969 480.0679,669.6406 Q480.0679,669.9844 479.7241,670.3906 Q479.2241,670.9688 478.4272,671.2969 Q477.3491,671.75 476.0522,671.75 Q474.5366,671.75 473.3335,671.125 Q472.3491,670.625 471.6616,669.5625 Q470.9741,668.4844 470.9741,667.2031 L470.9741,666.0469 Q470.9741,664.7188 471.5835,663.5781 Q472.2085,662.4219 473.3022,661.8125 Q474.396,661.1875 475.6304,661.1875 Q476.3647,661.1875 477.0054,661.3594 Q477.6616,661.5156 478.2085,661.875 Z " fill="#000000"/><text fill="#000000" font-family="sans-serif" font-size="14" lengthAdjust="spacing" textLength="105.0615" x="495.9429" y="671.7285">AcademicLeader</text><line style="stroke:#181818;stroke-width:0.5;" x1="421" x2="643.4473" y1="682" y2="682"/><text fill="#000000" font-family="sans-serif" font-size="14" lengthAdjust="spacing" textLength="115.9443" x="426" y="700.5332">-String department</text><text fill="#000000" font-family="sans-serif" font-size="14" lengthAdjust="spacing" textLength="98.041" x="426" y="718.1426">-String leaderID</text><text fill="#000000" font-family="sans-serif" font-size="14" lengthAdjust="spacing" textLength="212.4473" x="426" y="735.752">-List&lt;Lecturer&gt; assignedLecturers</text><text fill="#000000" font-family="sans-serif" font-size="14" lengthAdjust="spacing" textLength="203.9023" x="426" y="753.3613">-List&lt;Module&gt; managedModules</text><line style="stroke:#181818;stroke-width:0.5;" x1="421" x2="643.4473" y1="760.4375" y2="760.4375"/></g><!--class Lecturer--><g class="entity" data-qualified-name="Lecturer" data-source-line="22" id="ent0005"><rect fill="#F1F1F1" height="136.0469" rx="2.5" ry="2.5" style="stroke:#181818;stroke-width:0.5;" width="213.5645" x="1057" y="864"/><ellipse cx="1133.853" cy="880" fill="#ADD1B2" rx="11" ry="11" style="stroke:#181818;stroke-width:1;"/><path d="M1136.6187,875.875 Q1136.7749,875.6563 1136.9624,875.5469 Q1137.1499,875.4375 1137.3687,875.4375 Q1137.7437,875.4375 1137.978,875.7031 Q1138.2124,875.9531 1138.2124,876.5625 L1138.2124,878.0156 Q1138.2124,878.625 1137.978,878.8906 Q1137.7437,879.1563 1137.3687,879.1563 Q1137.0249,879.1563 1136.8218,878.9531 Q1136.6187,878.7656 1136.5093,878.25 Q1136.4624,877.8906 1136.2749,877.7031 Q1135.9468,877.3281 1135.3374,877.1094 Q1134.728,876.8906 1134.103,876.8906 Q1133.3374,876.8906 1132.6968,877.2188 Q1132.0718,877.5469 1131.5718,878.2969 Q1131.0874,879.0469 1131.0874,880.0781 L1131.0874,881.1719 Q1131.0874,882.4063 1131.978,883.2344 Q1132.8687,884.0469 1134.4624,884.0469 Q1135.3999,884.0469 1136.0562,883.7969 Q1136.4468,883.6406 1136.8687,883.2031 Q1137.1343,882.9375 1137.2749,882.8594 Q1137.4312,882.7813 1137.6343,882.7813 Q1137.9624,882.7813 1138.2124,883.0469 Q1138.478,883.2969 1138.478,883.6406 Q1138.478,883.9844 1138.1343,884.3906 Q1137.6343,884.9688 1136.8374,885.2969 Q1135.7593,885.75 1134.4624,885.75 Q1132.9468,885.75 1131.7437,885.125 Q1130.7593,884.625 1130.0718,883.5625 Q1129.3843,882.4844 1129.3843,881.2031 L1129.3843,880.0469 Q1129.3843,878.7188 1129.9937,877.5781 Q1130.6187,876.4219 1131.7124,875.8125 Q1132.8062,875.1875 1134.0405,875.1875 Q1134.7749,875.1875 1135.4155,875.3594 Q1136.0718,875.5156 1136.6187,875.875 Z " fill="#000000"/><text fill="#000000" font-family="sans-serif" font-size="14" lengthAdjust="spacing" textLength="51.3584" x="1154.353" y="885.7285">Lecturer</text><line style="stroke:#181818;stroke-width:0.5;" x1="1058" x2="1269.5645" y1="896" y2="896"/><text fill="#000000" font-family="sans-serif" font-size="14" lengthAdjust="spacing" textLength="105.8066" x="1063" y="914.5332">-String lecturerID</text><text fill="#000000" font-family="sans-serif" font-size="14" lengthAdjust="spacing" textLength="85.5791" x="1063" y="932.1426">-String staffID</text><text fill="#000000" font-family="sans-serif" font-size="14" lengthAdjust="spacing" textLength="115.9443" x="1063" y="949.752">-String department</text><text fill="#000000" font-family="sans-serif" font-size="14" lengthAdjust="spacing" textLength="162.6338" x="1063" y="967.3613">-String academicLeaderID</text><text fill="#000000" font-family="sans-serif" font-size="14" lengthAdjust="spacing" textLength="201.5645" x="1063" y="984.9707">-List&lt;Module&gt; assignedModules</text><line style="stroke:#181818;stroke-width:0.5;" x1="1058" x2="1269.5645" y1="992.0469" y2="992.0469"/></g><!--class Student--><g class="entity" data-qualified-name="Student" data-source-line="29" id="ent0006"><rect fill="#F1F1F1" height="83.2188" rx="2.5" ry="2.5" style="stroke:#181818;stroke-width:0.5;" width="152.0615" x="1061" y="667.5"/><ellipse cx="1108.6499" cy="683.5" fill="#ADD1B2" rx="11" ry="11" style="stroke:#181818;stroke-width:1;"/><path d="M1111.4155,679.375 Q1111.5718,679.1563 1111.7593,679.0469 Q1111.9468,678.9375 1112.1655,678.9375 Q1112.5405,678.9375 1112.7749,679.2031 Q1113.0093,679.4531 1113.0093,680.0625 L1113.0093,681.5156 Q1113.0093,682.125 1112.7749,682.3906 Q1112.5405,682.6563 1112.1655,682.6563 Q1111.8218,682.6563 1111.6187,682.4531 Q1111.4155,682.2656 1111.3062,681.75 Q1111.2593,681.3906 1111.0718,681.2031 Q1110.7437,680.8281 1110.1343,680.6094 Q1109.5249,680.3906 1108.8999,680.3906 Q1108.1343,680.3906 1107.4937,680.7188 Q1106.8687,681.0469 1106.3687,681.7969 Q1105.8843,682.5469 1105.8843,683.5781 L1105.8843,684.6719 Q1105.8843,685.9063 1106.7749,686.7344 Q1107.6655,687.5469 1109.2593,687.5469 Q1110.1968,687.5469 1110.853,687.2969 Q1111.2437,687.1406 1111.6655,686.7031 Q1111.9312,686.4375 1112.0718,686.3594 Q1112.228,686.2813 1112.4312,686.2813 Q1112.7593,686.2813 1113.0093,686.5469 Q1113.2749,686.7969 1113.2749,687.1406 Q1113.2749,687.4844 1112.9312,687.8906 Q1112.4312,688.4688 1111.6343,688.7969 Q1110.5562,689.25 1109.2593,689.25 Q1107.7437,689.25 1106.5405,688.625 Q1105.5562,688.125 1104.8687,687.0625 Q1104.1812,685.9844 1104.1812,684.7031 L1104.1812,683.5469 Q1104.1812,682.2188 1104.7905,681.0781 Q1105.4155,679.9219 1106.5093,679.3125 Q1107.603,678.6875 1108.8374,678.6875 Q1109.5718,678.6875 1110.2124,678.8594 Q1110.8687,679.0156 1111.4155,679.375 Z " fill="#000000"/><text fill="#000000" font-family="sans-serif" font-size="14" lengthAdjust="spacing" textLength="48.2617" x="1129.1499" y="689.2285">Student</text><line style="stroke:#181818;stroke-width:0.5;" x1="1062" x2="1212.0615" y1="699.5" y2="699.5"/><text fill="#000000" font-family="sans-serif" font-size="14" lengthAdjust="spacing" textLength="105.0479" x="1067" y="718.0332">-String studentID</text><text fill="#000000" font-family="sans-serif" font-size="14" lengthAdjust="spacing" textLength="140.0615" x="1067" y="735.6426">-String enrollmentYear</text><line style="stroke:#181818;stroke-width:0.5;" x1="1062" x2="1212.0615" y1="742.7188" y2="742.7188"/></g><!--class Module--><g class="entity" data-qualified-name="Module" data-source-line="34" id="ent0007"><rect fill="#F1F1F1" height="153.6563" rx="2.5" ry="2.5" style="stroke:#181818;stroke-width:0.5;" width="140.3857" x="1094" y="1078"/><ellipse cx="1137.1109" cy="1094" fill="#ADD1B2" rx="11" ry="11" style="stroke:#181818;stroke-width:1;"/><path d="M1139.8766,1089.875 Q1140.0328,1089.6563 1140.2203,1089.5469 Q1140.4078,1089.4375 1140.6266,1089.4375 Q1141.0016,1089.4375 1141.2359,1089.7031 Q1141.4703,1089.9531 1141.4703,1090.5625 L1141.4703,1092.0156 Q1141.4703,1092.625 1141.2359,1092.8906 Q1141.0016,1093.1563 1140.6266,1093.1563 Q1140.2828,1093.1563 1140.0797,1092.9531 Q1139.8766,1092.7656 1139.7672,1092.25 Q1139.7203,1091.8906 1139.5328,1091.7031 Q1139.2047,1091.3281 1138.5953,1091.1094 Q1137.9859,1090.8906 1137.3609,1090.8906 Q1136.5953,1090.8906 1135.9547,1091.2188 Q1135.3297,1091.5469 1134.8297,1092.2969 Q1134.3453,1093.0469 1134.3453,1094.0781 L1134.3453,1095.1719 Q1134.3453,1096.4063 1135.2359,1097.2344 Q1136.1266,1098.0469 1137.7203,1098.0469 Q1138.6578,1098.0469 1139.3141,1097.7969 Q1139.7047,1097.6406 1140.1266,1097.2031 Q1140.3922,1096.9375 1140.5328,1096.8594 Q1140.6891,1096.7813 1140.8922,1096.7813 Q1141.2203,1096.7813 1141.4703,1097.0469 Q1141.7359,1097.2969 1141.7359,1097.6406 Q1141.7359,1097.9844 1141.3922,1098.3906 Q1140.8922,1098.9688 1140.0953,1099.2969 Q1139.0172,1099.75 1137.7203,1099.75 Q1136.2047,1099.75 1135.0016,1099.125 Q1134.0172,1098.625 1133.3297,1097.5625 Q1132.6422,1096.4844 1132.6422,1095.2031 L1132.6422,1094.0469 Q1132.6422,1092.7188 1133.2516,1091.5781 Q1133.8766,1090.4219 1134.9703,1089.8125 Q1136.0641,1089.1875 1137.2984,1089.1875 Q1138.0328,1089.1875 1138.6734,1089.3594 Q1139.3297,1089.5156 1139.8766,1089.875 Z " fill="#000000"/><text fill="#000000" font-family="sans-serif" font-size="14" lengthAdjust="spacing" textLength="45.917" x="1157.3578" y="1099.7285">Module</text><line style="stroke:#181818;stroke-width:0.5;" x1="1095" x2="1233.3857" y1="1110" y2="1110"/><text fill="#000000" font-family="sans-serif" font-size="14" lengthAdjust="spacing" textLength="105.041" x="1100" y="1128.5332">-String moduleID</text><text fill="#000000" font-family="sans-serif" font-size="14" lengthAdjust="spacing" textLength="128.3857" x="1100" y="1146.1426">-String moduleName</text><text fill="#000000" font-family="sans-serif" font-size="14" lengthAdjust="spacing" textLength="124.5098" x="1100" y="1163.752">-String moduleCode</text><text fill="#000000" font-family="sans-serif" font-size="14" lengthAdjust="spacing" textLength="112.8271" x="1100" y="1181.3613">-String description</text><text fill="#000000" font-family="sans-serif" font-size="14" lengthAdjust="spacing" textLength="94.917" x="1100" y="1198.9707">-int creditHours</text><text fill="#000000" font-family="sans-serif" font-size="14" lengthAdjust="spacing" textLength="115.9443" x="1100" y="1216.5801">-String department</text><line style="stroke:#181818;stroke-width:0.5;" x1="1095" x2="1233.3857" y1="1223.6563" y2="1223.6563"/></g><!--class ClassModule--><g class="entity" data-qualified-name="ClassModule" data-source-line="43" id="ent0008"><rect fill="#F1F1F1" height="153.6563" rx="2.5" ry="2.5" style="stroke:#181818;stroke-width:0.5;" width="212.0264" x="679" y="632"/><ellipse cx="740.3013" cy="648" fill="#ADD1B2" rx="11" ry="11" style="stroke:#181818;stroke-width:1;"/><path d="M743.0669,643.875 Q743.2231,643.6563 743.4106,643.5469 Q743.5981,643.4375 743.8169,643.4375 Q744.1919,643.4375 744.4263,643.7031 Q744.6606,643.9531 744.6606,644.5625 L744.6606,646.0156 Q744.6606,646.625 744.4263,646.8906 Q744.1919,647.1563 743.8169,647.1563 Q743.4731,647.1563 743.27,646.9531 Q743.0669,646.7656 742.9575,646.25 Q742.9106,645.8906 742.7231,645.7031 Q742.395,645.3281 741.7856,645.1094 Q741.1763,644.8906 740.5513,644.8906 Q739.7856,644.8906 739.145,645.2188 Q738.52,645.5469 738.02,646.2969 Q737.5356,647.0469 737.5356,648.0781 L737.5356,649.1719 Q737.5356,650.4063 738.4263,651.2344 Q739.3169,652.0469 740.9106,652.0469 Q741.8481,652.0469 742.5044,651.7969 Q742.895,651.6406 743.3169,651.2031 Q743.5825,650.9375 743.7231,650.8594 Q743.8794,650.7813 744.0825,650.7813 Q744.4106,650.7813 744.6606,651.0469 Q744.9263,651.2969 744.9263,651.6406 Q744.9263,651.9844 744.5825,652.3906 Q744.0825,652.9688 743.2856,653.2969 Q742.2075,653.75 740.9106,653.75 Q739.395,653.75 738.1919,653.125 Q737.2075,652.625 736.52,651.5625 Q735.8325,650.4844 735.8325,649.2031 L735.8325,648.0469 Q735.8325,646.7188 736.4419,645.5781 Q737.0669,644.4219 738.1606,643.8125 Q739.2544,643.1875 740.4888,643.1875 Q741.2231,643.1875 741.8638,643.3594 Q742.52,643.5156 743.0669,643.875 Z " fill="#000000"/><text fill="#000000" font-family="sans-serif" font-size="14" lengthAdjust="spacing" textLength="80.9238" x="760.8013" y="653.7285">ClassModule</text><line style="stroke:#181818;stroke-width:0.5;" x1="680" x2="890.0264" y1="664" y2="664"/><text fill="#000000" font-family="sans-serif" font-size="14" lengthAdjust="spacing" textLength="91.0205" x="685" y="682.5332">-String classID</text><text fill="#000000" font-family="sans-serif" font-size="14" lengthAdjust="spacing" textLength="114.3652" x="685" y="700.1426">-String className</text><text fill="#000000" font-family="sans-serif" font-size="14" lengthAdjust="spacing" textLength="105.041" x="685" y="717.752">-String moduleID</text><text fill="#000000" font-family="sans-serif" font-size="14" lengthAdjust="spacing" textLength="106.5928" x="685" y="735.3613">-Lecturer lecturer</text><text fill="#000000" font-family="sans-serif" font-size="14" lengthAdjust="spacing" textLength="200.0264" x="685" y="752.9707">-List&lt;Student&gt; enrolledStudents</text><text fill="#000000" font-family="sans-serif" font-size="14" lengthAdjust="spacing" textLength="74.6963" x="685" y="770.5801">-int capacity</text><line style="stroke:#181818;stroke-width:0.5;" x1="680" x2="890.0264" y1="777.6563" y2="777.6563"/></g><!--class Assessment--><g class="entity" data-qualified-name="Assessment" data-source-line="52" id="ent0009"><rect fill="#F1F1F1" height="136.0469" rx="2.5" ry="2.5" style="stroke:#181818;stroke-width:0.5;" width="233.7441" x="1319" y="641"/><ellipse cx="1393.498" cy="657" fill="#ADD1B2" rx="11" ry="11" style="stroke:#181818;stroke-width:1;"/><path d="M1396.2637,652.875 Q1396.4199,652.6563 1396.6074,652.5469 Q1396.7949,652.4375 1397.0137,652.4375 Q1397.3887,652.4375 1397.623,652.7031 Q1397.8574,652.9531 1397.8574,653.5625 L1397.8574,655.0156 Q1397.8574,655.625 1397.623,655.8906 Q1397.3887,656.1563 1397.0137,656.1563 Q1396.6699,656.1563 1396.4668,655.9531 Q1396.2637,655.7656 1396.1543,655.25 Q1396.1074,654.8906 1395.9199,654.7031 Q1395.5918,654.3281 1394.9824,654.1094 Q1394.373,653.8906 1393.748,653.8906 Q1392.9824,653.8906 1392.3418,654.2188 Q1391.7168,654.5469 1391.2168,655.2969 Q1390.7324,656.0469 1390.7324,657.0781 L1390.7324,658.1719 Q1390.7324,659.4063 1391.623,660.2344 Q1392.5137,661.0469 1394.1074,661.0469 Q1395.0449,661.0469 1395.7012,660.7969 Q1396.0918,660.6406 1396.5137,660.2031 Q1396.7793,659.9375 1396.9199,659.8594 Q1397.0762,659.7813 1397.2793,659.7813 Q1397.6074,659.7813 1397.8574,660.0469 Q1398.123,660.2969 1398.123,660.6406 Q1398.123,660.9844 1397.7793,661.3906 Q1397.2793,661.9688 1396.4824,662.2969 Q1395.4043,662.75 1394.1074,662.75 Q1392.5918,662.75 1391.3887,662.125 Q1390.4043,661.625 1389.7168,660.5625 Q1389.0293,659.4844 1389.0293,658.2031 L1389.0293,657.0469 Q1389.0293,655.7188 1389.6387,654.5781 Q1390.2637,653.4219 1391.3574,652.8125 Q1392.4512,652.1875 1393.6855,652.1875 Q1394.4199,652.1875 1395.0605,652.3594 Q1395.7168,652.5156 1396.2637,652.875 Z " fill="#000000"/><text fill="#000000" font-family="sans-serif" font-size="14" lengthAdjust="spacing" textLength="76.248" x="1413.998" y="662.7285">Assessment</text><line style="stroke:#181818;stroke-width:0.5;" x1="1320" x2="1551.7441" y1="673" y2="673"/><text fill="#000000" font-family="sans-serif" font-size="14" lengthAdjust="spacing" textLength="133.8203" x="1325" y="691.5332">-String assessmentID</text><text fill="#000000" font-family="sans-serif" font-size="14" lengthAdjust="spacing" textLength="157.165" x="1325" y="709.1426">-String assessmentName</text><text fill="#000000" font-family="sans-serif" font-size="14" lengthAdjust="spacing" textLength="221.7441" x="1325" y="726.752">-AssessmentType assessmentType</text><text fill="#000000" font-family="sans-serif" font-size="14" lengthAdjust="spacing" textLength="100.3857" x="1325" y="744.3613">-Module module</text><text fill="#000000" font-family="sans-serif" font-size="14" lengthAdjust="spacing" textLength="122.9443" x="1325" y="761.9707">-Lecturer createdBy</text><line style="stroke:#181818;stroke-width:0.5;" x1="1320" x2="1551.7441" y1="769.0469" y2="769.0469"/></g><!--class AssessmentType--><g class="entity" data-qualified-name="AssessmentType" data-source-line="60" id="ent0010"><rect fill="#F1F1F1" height="48" rx="2.5" ry="2.5" style="stroke:#181818;stroke-width:0.5;" width="139.3721" x="39.5" y="42"/><ellipse cx="54.5" cy="58" fill="#ADD1B2" rx="11" ry="11" style="stroke:#181818;stroke-width:1;"/><path d="M57.2656,53.875 Q57.4219,53.6563 57.6094,53.5469 Q57.7969,53.4375 58.0156,53.4375 Q58.3906,53.4375 58.625,53.7031 Q58.8594,53.9531 58.8594,54.5625 L58.8594,56.0156 Q58.8594,56.625 58.625,56.8906 Q58.3906,57.1563 58.0156,57.1563 Q57.6719,57.1563 57.4688,56.9531 Q57.2656,56.7656 57.1563,56.25 Q57.1094,55.8906 56.9219,55.7031 Q56.5938,55.3281 55.9844,55.1094 Q55.375,54.8906 54.75,54.8906 Q53.9844,54.8906 53.3438,55.2188 Q52.7188,55.5469 52.2188,56.2969 Q51.7344,57.0469 51.7344,58.0781 L51.7344,59.1719 Q51.7344,60.4063 52.625,61.2344 Q53.5156,62.0469 55.1094,62.0469 Q56.0469,62.0469 56.7031,61.7969 Q57.0938,61.6406 57.5156,61.2031 Q57.7813,60.9375 57.9219,60.8594 Q58.0781,60.7813 58.2813,60.7813 Q58.6094,60.7813 58.8594,61.0469 Q59.125,61.2969 59.125,61.6406 Q59.125,61.9844 58.7813,62.3906 Q58.2813,62.9688 57.4844,63.2969 Q56.4063,63.75 55.1094,63.75 Q53.5938,63.75 52.3906,63.125 Q51.4063,62.625 50.7188,61.5625 Q50.0313,60.4844 50.0313,59.2031 L50.0313,58.0469 Q50.0313,56.7188 50.6406,55.5781 Q51.2656,54.4219 52.3594,53.8125 Q53.4531,53.1875 54.6875,53.1875 Q55.4219,53.1875 56.0625,53.3594 Q56.7188,53.5156 57.2656,53.875 Z " fill="#000000"/><text fill="#000000" font-family="sans-serif" font-size="14" lengthAdjust="spacing" textLength="107.3721" x="68.5" y="63.7285">AssessmentType</text><line style="stroke:#181818;stroke-width:0.5;" x1="40.5" x2="177.8721" y1="74" y2="74"/><line style="stroke:#181818;stroke-width:0.5;" x1="40.5" x2="177.8721" y1="82" y2="82"/></g><!--class Feedback--><g class="entity" data-qualified-name="Feedback" data-source-line="61" id="ent0011"><rect fill="#F1F1F1" height="118.4375" rx="2.5" ry="2.5" style="stroke:#181818;stroke-width:0.5;" width="145.8203" x="214" y="7"/><ellipse cx="252.5521" cy="23" fill="#ADD1B2" rx="11" ry="11" style="stroke:#181818;stroke-width:1;"/><path d="M255.3177,18.875 Q255.4739,18.6563 255.6614,18.5469 Q255.8489,18.4375 256.0677,18.4375 Q256.4427,18.4375 256.6771,18.7031 Q256.9114,18.9531 256.9114,19.5625 L256.9114,21.0156 Q256.9114,21.625 256.6771,21.8906 Q256.4427,22.1563 256.0677,22.1563 Q255.7239,22.1563 255.5208,21.9531 Q255.3177,21.7656 255.2083,21.25 Q255.1614,20.8906 254.9739,20.7031 Q254.6458,20.3281 254.0364,20.1094 Q253.4271,19.8906 252.8021,19.8906 Q252.0364,19.8906 251.3958,20.2188 Q250.7708,20.5469 250.2708,21.2969 Q249.7864,22.0469 249.7864,23.0781 L249.7864,24.1719 Q249.7864,25.4063 250.6771,26.2344 Q251.5677,27.0469 253.1614,27.0469 Q254.0989,27.0469 254.7552,26.7969 Q255.1458,26.6406 255.5677,26.2031 Q255.8333,25.9375 255.9739,25.8594 Q256.1302,25.7813 256.3333,25.7813 Q256.6614,25.7813 256.9114,26.0469 Q257.1771,26.2969 257.1771,26.6406 Q257.1771,26.9844 256.8333,27.3906 Q256.3333,27.9688 255.5364,28.2969 Q254.4583,28.75 253.1614,28.75 Q251.6458,28.75 250.4427,28.125 Q249.4583,27.625 248.7708,26.5625 Q248.0833,25.4844 248.0833,24.2031 L248.0833,23.0469 Q248.0833,21.7188 248.6927,20.5781 Q249.3177,19.4219 250.4114,18.8125 Q251.5052,18.1875 252.7396,18.1875 Q253.4739,18.1875 254.1146,18.3594 Q254.7708,18.5156 255.3177,18.875 Z " fill="#000000"/><text fill="#000000" font-family="sans-serif" font-size="14" lengthAdjust="spacing" textLength="61.4824" x="271.7858" y="28.7285">Feedback</text><line style="stroke:#181818;stroke-width:0.5;" x1="215" x2="358.8203" y1="39" y2="39"/><text fill="#000000" font-family="sans-serif" font-size="14" lengthAdjust="spacing" textLength="115.9443" x="220" y="57.5332">-String feedbackID</text><text fill="#000000" font-family="sans-serif" font-size="14" lengthAdjust="spacing" textLength="133.8203" x="220" y="75.1426">-String assessmentID</text><text fill="#000000" font-family="sans-serif" font-size="14" lengthAdjust="spacing" textLength="105.0479" x="220" y="92.752">-String studentID</text><text fill="#000000" font-family="sans-serif" font-size="14" lengthAdjust="spacing" textLength="105.8066" x="220" y="110.3613">-String lecturerID</text><line style="stroke:#181818;stroke-width:0.5;" x1="215" x2="358.8203" y1="117.4375" y2="117.4375"/></g><!--class SystemManager--><g class="entity" data-qualified-name="SystemManager" data-source-line="69" id="ent0012"><rect fill="#F1F1F1" height="118.4375" rx="2.5" ry="2.5" style="stroke:#181818;stroke-width:0.5;" width="216.6338" x="1146.5" y="186"/><ellipse cx="1199.6016" cy="202" fill="#ADD1B2" rx="11" ry="11" style="stroke:#181818;stroke-width:1;"/><path d="M1202.3672,197.875 Q1202.5234,197.6563 1202.7109,197.5469 Q1202.8984,197.4375 1203.1172,197.4375 Q1203.4922,197.4375 1203.7266,197.7031 Q1203.9609,197.9531 1203.9609,198.5625 L1203.9609,200.0156 Q1203.9609,200.625 1203.7266,200.8906 Q1203.4922,201.1563 1203.1172,201.1563 Q1202.7734,201.1563 1202.5703,200.9531 Q1202.3672,200.7656 1202.2578,200.25 Q1202.2109,199.8906 1202.0234,199.7031 Q1201.6953,199.3281 1201.0859,199.1094 Q1200.4766,198.8906 1199.8516,198.8906 Q1199.0859,198.8906 1198.4453,199.2188 Q1197.8203,199.5469 1197.3203,200.2969 Q1196.8359,201.0469 1196.8359,202.0781 L1196.8359,203.1719 Q1196.8359,204.4063 1197.7266,205.2344 Q1198.6172,206.0469 1200.2109,206.0469 Q1201.1484,206.0469 1201.8047,205.7969 Q1202.1953,205.6406 1202.6172,205.2031 Q1202.8828,204.9375 1203.0234,204.8594 Q1203.1797,204.7813 1203.3828,204.7813 Q1203.7109,204.7813 1203.9609,205.0469 Q1204.2266,205.2969 1204.2266,205.6406 Q1204.2266,205.9844 1203.8828,206.3906 Q1203.3828,206.9688 1202.5859,207.2969 Q1201.5078,207.75 1200.2109,207.75 Q1198.6953,207.75 1197.4922,207.125 Q1196.5078,206.625 1195.8203,205.5625 Q1195.1328,204.4844 1195.1328,203.2031 L1195.1328,202.0469 Q1195.1328,200.7188 1195.7422,199.5781 Q1196.3672,198.4219 1197.4609,197.8125 Q1198.5547,197.1875 1199.7891,197.1875 Q1200.5234,197.1875 1201.1641,197.3594 Q1201.8203,197.5156 1202.3672,197.875 Z " fill="#000000"/><text fill="#000000" font-family="sans-serif" font-size="14" lengthAdjust="spacing" textLength="101.9307" x="1220.1016" y="207.7285">SystemManager</text><line style="stroke:#181818;stroke-width:0.5;" x1="1147.5" x2="1362.1338" y1="218" y2="218"/><text fill="#000000" font-family="sans-serif" font-size="14" lengthAdjust="spacing" textLength="110.4824" x="1152.5" y="236.5332">-List&lt;User&gt; users</text><text fill="#000000" font-family="sans-serif" font-size="14" lengthAdjust="spacing" textLength="145.5234" x="1152.5" y="254.1426">-List&lt;Module&gt; modules</text><text fill="#000000" font-family="sans-serif" font-size="14" lengthAdjust="spacing" textLength="174.2959" x="1152.5" y="271.752">-List&lt;ClassModule&gt; classes</text><text fill="#000000" font-family="sans-serif" font-size="14" lengthAdjust="spacing" textLength="204.6338" x="1152.5" y="289.3613">-List&lt;Assessment&gt; assessments</text><line style="stroke:#181818;stroke-width:0.5;" x1="1147.5" x2="1362.1338" y1="296.4375" y2="296.4375"/></g><!--class FileManager--><g class="entity" data-qualified-name="FileManager" data-source-line="75" id="ent0013"><rect fill="#F1F1F1" height="48" rx="2.5" ry="2.5" style="stroke:#181818;stroke-width:0.5;" width="109.8135" x="395" y="42"/><ellipse cx="410" cy="58" fill="#ADD1B2" rx="11" ry="11" style="stroke:#181818;stroke-width:1;"/><path d="M412.7656,53.875 Q412.9219,53.6563 413.1094,53.5469 Q413.2969,53.4375 413.5156,53.4375 Q413.8906,53.4375 414.125,53.7031 Q414.3594,53.9531 414.3594,54.5625 L414.3594,56.0156 Q414.3594,56.625 414.125,56.8906 Q413.8906,57.1563 413.5156,57.1563 Q413.1719,57.1563 412.9688,56.9531 Q412.7656,56.7656 412.6563,56.25 Q412.6094,55.8906 412.4219,55.7031 Q412.0938,55.3281 411.4844,55.1094 Q410.875,54.8906 410.25,54.8906 Q409.4844,54.8906 408.8438,55.2188 Q408.2188,55.5469 407.7188,56.2969 Q407.2344,57.0469 407.2344,58.0781 L407.2344,59.1719 Q407.2344,60.4063 408.125,61.2344 Q409.0156,62.0469 410.6094,62.0469 Q411.5469,62.0469 412.2031,61.7969 Q412.5938,61.6406 413.0156,61.2031 Q413.2813,60.9375 413.4219,60.8594 Q413.5781,60.7813 413.7813,60.7813 Q414.1094,60.7813 414.3594,61.0469 Q414.625,61.2969 414.625,61.6406 Q414.625,61.9844 414.2813,62.3906 Q413.7813,62.9688 412.9844,63.2969 Q411.9063,63.75 410.6094,63.75 Q409.0938,63.75 407.8906,63.125 Q406.9063,62.625 406.2188,61.5625 Q405.5313,60.4844 405.5313,59.2031 L405.5313,58.0469 Q405.5313,56.7188 406.1406,55.5781 Q406.7656,54.4219 407.8594,53.8125 Q408.9531,53.1875 410.1875,53.1875 Q410.9219,53.1875 411.5625,53.3594 Q412.2188,53.5156 412.7656,53.875 Z " fill="#000000"/><text fill="#000000" font-family="sans-serif" font-size="14" lengthAdjust="spacing" textLength="77.8135" x="424" y="63.7285">FileManager</text><line style="stroke:#181818;stroke-width:0.5;" x1="396" x2="503.8135" y1="74" y2="74"/><line style="stroke:#181818;stroke-width:0.5;" x1="396" x2="503.8135" y1="82" y2="82"/></g><!--class GradingSystem--><g class="entity" data-qualified-name="GradingSystem" data-source-line="76" id="ent0014"><rect fill="#F1F1F1" height="48" rx="2.5" ry="2.5" style="stroke:#181818;stroke-width:0.5;" width="128.4824" x="540" y="42"/><ellipse cx="555" cy="58" fill="#ADD1B2" rx="11" ry="11" style="stroke:#181818;stroke-width:1;"/><path d="M557.7656,53.875 Q557.9219,53.6563 558.1094,53.5469 Q558.2969,53.4375 558.5156,53.4375 Q558.8906,53.4375 559.125,53.7031 Q559.3594,53.9531 559.3594,54.5625 L559.3594,56.0156 Q559.3594,56.625 559.125,56.8906 Q558.8906,57.1563 558.5156,57.1563 Q558.1719,57.1563 557.9688,56.9531 Q557.7656,56.7656 557.6563,56.25 Q557.6094,55.8906 557.4219,55.7031 Q557.0938,55.3281 556.4844,55.1094 Q555.875,54.8906 555.25,54.8906 Q554.4844,54.8906 553.8438,55.2188 Q553.2188,55.5469 552.7188,56.2969 Q552.2344,57.0469 552.2344,58.0781 L552.2344,59.1719 Q552.2344,60.4063 553.125,61.2344 Q554.0156,62.0469 555.6094,62.0469 Q556.5469,62.0469 557.2031,61.7969 Q557.5938,61.6406 558.0156,61.2031 Q558.2813,60.9375 558.4219,60.8594 Q558.5781,60.7813 558.7813,60.7813 Q559.1094,60.7813 559.3594,61.0469 Q559.625,61.2969 559.625,61.6406 Q559.625,61.9844 559.2813,62.3906 Q558.7813,62.9688 557.9844,63.2969 Q556.9063,63.75 555.6094,63.75 Q554.0938,63.75 552.8906,63.125 Q551.9063,62.625 551.2188,61.5625 Q550.5313,60.4844 550.5313,59.2031 L550.5313,58.0469 Q550.5313,56.7188 551.1406,55.5781 Q551.7656,54.4219 552.8594,53.8125 Q553.9531,53.1875 555.1875,53.1875 Q555.9219,53.1875 556.5625,53.3594 Q557.2188,53.5156 557.7656,53.875 Z " fill="#000000"/><text fill="#000000" font-family="sans-serif" font-size="14" lengthAdjust="spacing" textLength="96.4824" x="569" y="63.7285">GradingSystem</text><line style="stroke:#181818;stroke-width:0.5;" x1="541" x2="667.4824" y1="74" y2="74"/><line style="stroke:#181818;stroke-width:0.5;" x1="541" x2="667.4824" y1="82" y2="82"/></g><!--class GradingScale--><g class="entity" data-qualified-name="GradingScale" data-source-line="77" id="ent0015"><rect fill="#F1F1F1" height="48" rx="2.5" ry="2.5" style="stroke:#181818;stroke-width:0.5;" width="116.8271" x="50.5" y="221"/><ellipse cx="65.5" cy="237" fill="#ADD1B2" rx="11" ry="11" style="stroke:#181818;stroke-width:1;"/><path d="M68.2656,232.875 Q68.4219,232.6563 68.6094,232.5469 Q68.7969,232.4375 69.0156,232.4375 Q69.3906,232.4375 69.625,232.7031 Q69.8594,232.9531 69.8594,233.5625 L69.8594,235.0156 Q69.8594,235.625 69.625,235.8906 Q69.3906,236.1563 69.0156,236.1563 Q68.6719,236.1563 68.4688,235.9531 Q68.2656,235.7656 68.1563,235.25 Q68.1094,234.8906 67.9219,234.7031 Q67.5938,234.3281 66.9844,234.1094 Q66.375,233.8906 65.75,233.8906 Q64.9844,233.8906 64.3438,234.2188 Q63.7188,234.5469 63.2188,235.2969 Q62.7344,236.0469 62.7344,237.0781 L62.7344,238.1719 Q62.7344,239.4063 63.625,240.2344 Q64.5156,241.0469 66.1094,241.0469 Q67.0469,241.0469 67.7031,240.7969 Q68.0938,240.6406 68.5156,240.2031 Q68.7813,239.9375 68.9219,239.8594 Q69.0781,239.7813 69.2813,239.7813 Q69.6094,239.7813 69.8594,240.0469 Q70.125,240.2969 70.125,240.6406 Q70.125,240.9844 69.7813,241.3906 Q69.2813,241.9688 68.4844,242.2969 Q67.4063,242.75 66.1094,242.75 Q64.5938,242.75 63.3906,242.125 Q62.4063,241.625 61.7188,240.5625 Q61.0313,239.4844 61.0313,238.2031 L61.0313,237.0469 Q61.0313,235.7188 61.6406,234.5781 Q62.2656,233.4219 63.3594,232.8125 Q64.4531,232.1875 65.6875,232.1875 Q66.4219,232.1875 67.0625,232.3594 Q67.7188,232.5156 68.2656,232.875 Z " fill="#000000"/><text fill="#000000" font-family="sans-serif" font-size="14" lengthAdjust="spacing" textLength="84.8271" x="79.5" y="242.7285">GradingScale</text><line style="stroke:#181818;stroke-width:0.5;" x1="51.5" x2="166.3271" y1="253" y2="253"/><line style="stroke:#181818;stroke-width:0.5;" x1="51.5" x2="166.3271" y1="261" y2="261"/></g><!--class AFSLoginFrame--><g class="entity" data-qualified-name="AFSLoginFrame" data-source-line="80" id="ent0016"><rect fill="#F1F1F1" height="48" rx="2.5" ry="2.5" style="stroke:#181818;stroke-width:0.5;" width="133.9307" x="703" y="42"/><ellipse cx="718" cy="58" fill="#ADD1B2" rx="11" ry="11" style="stroke:#181818;stroke-width:1;"/><path d="M720.7656,53.875 Q720.9219,53.6563 721.1094,53.5469 Q721.2969,53.4375 721.5156,53.4375 Q721.8906,53.4375 722.125,53.7031 Q722.3594,53.9531 722.3594,54.5625 L722.3594,56.0156 Q722.3594,56.625 722.125,56.8906 Q721.8906,57.1563 721.5156,57.1563 Q721.1719,57.1563 720.9688,56.9531 Q720.7656,56.7656 720.6563,56.25 Q720.6094,55.8906 720.4219,55.7031 Q720.0938,55.3281 719.4844,55.1094 Q718.875,54.8906 718.25,54.8906 Q717.4844,54.8906 716.8438,55.2188 Q716.2188,55.5469 715.7188,56.2969 Q715.2344,57.0469 715.2344,58.0781 L715.2344,59.1719 Q715.2344,60.4063 716.125,61.2344 Q717.0156,62.0469 718.6094,62.0469 Q719.5469,62.0469 720.2031,61.7969 Q720.5938,61.6406 721.0156,61.2031 Q721.2813,60.9375 721.4219,60.8594 Q721.5781,60.7813 721.7813,60.7813 Q722.1094,60.7813 722.3594,61.0469 Q722.625,61.2969 722.625,61.6406 Q722.625,61.9844 722.2813,62.3906 Q721.7813,62.9688 720.9844,63.2969 Q719.9063,63.75 718.6094,63.75 Q717.0938,63.75 715.8906,63.125 Q714.9063,62.625 714.2188,61.5625 Q713.5313,60.4844 713.5313,59.2031 L713.5313,58.0469 Q713.5313,56.7188 714.1406,55.5781 Q714.7656,54.4219 715.8594,53.8125 Q716.9531,53.1875 718.1875,53.1875 Q718.9219,53.1875 719.5625,53.3594 Q720.2188,53.5156 720.7656,53.875 Z " fill="#000000"/><text fill="#000000" font-family="sans-serif" font-size="14" lengthAdjust="spacing" textLength="101.9307" x="732" y="63.7285">AFSLoginFrame</text><line style="stroke:#181818;stroke-width:0.5;" x1="704" x2="835.9307" y1="74" y2="74"/><line style="stroke:#181818;stroke-width:0.5;" x1="704" x2="835.9307" y1="82" y2="82"/></g><!--class AFSRegistrationFrame--><g class="entity" data-qualified-name="AFSRegistrationFrame" data-source-line="81" id="ent0017"><rect fill="#F1F1F1" height="48" rx="2.5" ry="2.5" style="stroke:#181818;stroke-width:0.5;" width="174.3789" x="872" y="42"/><ellipse cx="887" cy="58" fill="#ADD1B2" rx="11" ry="11" style="stroke:#181818;stroke-width:1;"/><path d="M889.7656,53.875 Q889.9219,53.6563 890.1094,53.5469 Q890.2969,53.4375 890.5156,53.4375 Q890.8906,53.4375 891.125,53.7031 Q891.3594,53.9531 891.3594,54.5625 L891.3594,56.0156 Q891.3594,56.625 891.125,56.8906 Q890.8906,57.1563 890.5156,57.1563 Q890.1719,57.1563 889.9688,56.9531 Q889.7656,56.7656 889.6563,56.25 Q889.6094,55.8906 889.4219,55.7031 Q889.0938,55.3281 888.4844,55.1094 Q887.875,54.8906 887.25,54.8906 Q886.4844,54.8906 885.8438,55.2188 Q885.2188,55.5469 884.7188,56.2969 Q884.2344,57.0469 884.2344,58.0781 L884.2344,59.1719 Q884.2344,60.4063 885.125,61.2344 Q886.0156,62.0469 887.6094,62.0469 Q888.5469,62.0469 889.2031,61.7969 Q889.5938,61.6406 890.0156,61.2031 Q890.2813,60.9375 890.4219,60.8594 Q890.5781,60.7813 890.7813,60.7813 Q891.1094,60.7813 891.3594,61.0469 Q891.625,61.2969 891.625,61.6406 Q891.625,61.9844 891.2813,62.3906 Q890.7813,62.9688 889.9844,63.2969 Q888.9063,63.75 887.6094,63.75 Q886.0938,63.75 884.8906,63.125 Q883.9063,62.625 883.2188,61.5625 Q882.5313,60.4844 882.5313,59.2031 L882.5313,58.0469 Q882.5313,56.7188 883.1406,55.5781 Q883.7656,54.4219 884.8594,53.8125 Q885.9531,53.1875 887.1875,53.1875 Q887.9219,53.1875 888.5625,53.3594 Q889.2188,53.5156 889.7656,53.875 Z " fill="#000000"/><text fill="#000000" font-family="sans-serif" font-size="14" lengthAdjust="spacing" textLength="142.3789" x="901" y="63.7285">AFSRegistrationFrame</text><line style="stroke:#181818;stroke-width:0.5;" x1="873" x2="1045.3789" y1="74" y2="74"/><line style="stroke:#181818;stroke-width:0.5;" x1="873" x2="1045.3789" y1="82" y2="82"/></g><!--class AdminDashboard--><g class="entity" data-qualified-name="AdminDashboard" data-source-line="82" id="ent0018"><rect fill="#F1F1F1" height="48" rx="2.5" ry="2.5" style="stroke:#181818;stroke-width:0.5;" width="140.1719" x="1081" y="42"/><ellipse cx="1096" cy="58" fill="#ADD1B2" rx="11" ry="11" style="stroke:#181818;stroke-width:1;"/><path d="M1098.7656,53.875 Q1098.9219,53.6563 1099.1094,53.5469 Q1099.2969,53.4375 1099.5156,53.4375 Q1099.8906,53.4375 1100.125,53.7031 Q1100.3594,53.9531 1100.3594,54.5625 L1100.3594,56.0156 Q1100.3594,56.625 1100.125,56.8906 Q1099.8906,57.1563 1099.5156,57.1563 Q1099.1719,57.1563 1098.9688,56.9531 Q1098.7656,56.7656 1098.6563,56.25 Q1098.6094,55.8906 1098.4219,55.7031 Q1098.0938,55.3281 1097.4844,55.1094 Q1096.875,54.8906 1096.25,54.8906 Q1095.4844,54.8906 1094.8438,55.2188 Q1094.2188,55.5469 1093.7188,56.2969 Q1093.2344,57.0469 1093.2344,58.0781 L1093.2344,59.1719 Q1093.2344,60.4063 1094.125,61.2344 Q1095.0156,62.0469 1096.6094,62.0469 Q1097.5469,62.0469 1098.2031,61.7969 Q1098.5938,61.6406 1099.0156,61.2031 Q1099.2813,60.9375 1099.4219,60.8594 Q1099.5781,60.7813 1099.7813,60.7813 Q1100.1094,60.7813 1100.3594,61.0469 Q1100.625,61.2969 1100.625,61.6406 Q1100.625,61.9844 1100.2813,62.3906 Q1099.7813,62.9688 1098.9844,63.2969 Q1097.9063,63.75 1096.6094,63.75 Q1095.0938,63.75 1093.8906,63.125 Q1092.9063,62.625 1092.2188,61.5625 Q1091.5313,60.4844 1091.5313,59.2031 L1091.5313,58.0469 Q1091.5313,56.7188 1092.1406,55.5781 Q1092.7656,54.4219 1093.8594,53.8125 Q1094.9531,53.1875 1096.1875,53.1875 Q1096.9219,53.1875 1097.5625,53.3594 Q1098.2188,53.5156 1098.7656,53.875 Z " fill="#000000"/><text fill="#000000" font-family="sans-serif" font-size="14" lengthAdjust="spacing" textLength="108.1719" x="1110" y="63.7285">AdminDashboard</text><line style="stroke:#181818;stroke-width:0.5;" x1="1082" x2="1220.1719" y1="74" y2="74"/><line style="stroke:#181818;stroke-width:0.5;" x1="1082" x2="1220.1719" y1="82" y2="82"/></g><!--class AdminUserManagementPanel--><g class="entity" data-qualified-name="AdminUserManagementPanel" data-source-line="83" id="ent0019"><rect fill="#F1F1F1" height="48" rx="2.5" ry="2.5" style="stroke:#181818;stroke-width:0.5;" width="218.7646" x="202.5" y="221"/><ellipse cx="217.5" cy="237" fill="#ADD1B2" rx="11" ry="11" style="stroke:#181818;stroke-width:1;"/><path d="M220.2656,232.875 Q220.4219,232.6563 220.6094,232.5469 Q220.7969,232.4375 221.0156,232.4375 Q221.3906,232.4375 221.625,232.7031 Q221.8594,232.9531 221.8594,233.5625 L221.8594,235.0156 Q221.8594,235.625 221.625,235.8906 Q221.3906,236.1563 221.0156,236.1563 Q220.6719,236.1563 220.4688,235.9531 Q220.2656,235.7656 220.1563,235.25 Q220.1094,234.8906 219.9219,234.7031 Q219.5938,234.3281 218.9844,234.1094 Q218.375,233.8906 217.75,233.8906 Q216.9844,233.8906 216.3438,234.2188 Q215.7188,234.5469 215.2188,235.2969 Q214.7344,236.0469 214.7344,237.0781 L214.7344,238.1719 Q214.7344,239.4063 215.625,240.2344 Q216.5156,241.0469 218.1094,241.0469 Q219.0469,241.0469 219.7031,240.7969 Q220.0938,240.6406 220.5156,240.2031 Q220.7813,239.9375 220.9219,239.8594 Q221.0781,239.7813 221.2813,239.7813 Q221.6094,239.7813 221.8594,240.0469 Q222.125,240.2969 222.125,240.6406 Q222.125,240.9844 221.7813,241.3906 Q221.2813,241.9688 220.4844,242.2969 Q219.4063,242.75 218.1094,242.75 Q216.5938,242.75 215.3906,242.125 Q214.4063,241.625 213.7188,240.5625 Q213.0313,239.4844 213.0313,238.2031 L213.0313,237.0469 Q213.0313,235.7188 213.6406,234.5781 Q214.2656,233.4219 215.3594,232.8125 Q216.4531,232.1875 217.6875,232.1875 Q218.4219,232.1875 219.0625,232.3594 Q219.7188,232.5156 220.2656,232.875 Z " fill="#000000"/><text fill="#000000" font-family="sans-serif" font-size="14" lengthAdjust="spacing" textLength="186.7646" x="231.5" y="242.7285">AdminUserManagementPanel</text><line style="stroke:#181818;stroke-width:0.5;" x1="203.5" x2="420.2646" y1="253" y2="253"/><line style="stroke:#181818;stroke-width:0.5;" x1="203.5" x2="420.2646" y1="261" y2="261"/></g><!--class AdminLecturerAssignmentPanel--><g class="entity" data-qualified-name="AdminLecturerAssignmentPanel" data-source-line="84" id="ent0020"><rect fill="#F1F1F1" height="48" rx="2.5" ry="2.5" style="stroke:#181818;stroke-width:0.5;" width="231.9922" x="457" y="221"/><ellipse cx="472" cy="237" fill="#ADD1B2" rx="11" ry="11" style="stroke:#181818;stroke-width:1;"/><path d="M474.7656,232.875 Q474.9219,232.6563 475.1094,232.5469 Q475.2969,232.4375 475.5156,232.4375 Q475.8906,232.4375 476.125,232.7031 Q476.3594,232.9531 476.3594,233.5625 L476.3594,235.0156 Q476.3594,235.625 476.125,235.8906 Q475.8906,236.1563 475.5156,236.1563 Q475.1719,236.1563 474.9688,235.9531 Q474.7656,235.7656 474.6563,235.25 Q474.6094,234.8906 474.4219,234.7031 Q474.0938,234.3281 473.4844,234.1094 Q472.875,233.8906 472.25,233.8906 Q471.4844,233.8906 470.8438,234.2188 Q470.2188,234.5469 469.7188,235.2969 Q469.2344,236.0469 469.2344,237.0781 L469.2344,238.1719 Q469.2344,239.4063 470.125,240.2344 Q471.0156,241.0469 472.6094,241.0469 Q473.5469,241.0469 474.2031,240.7969 Q474.5938,240.6406 475.0156,240.2031 Q475.2813,239.9375 475.4219,239.8594 Q475.5781,239.7813 475.7813,239.7813 Q476.1094,239.7813 476.3594,240.0469 Q476.625,240.2969 476.625,240.6406 Q476.625,240.9844 476.2813,241.3906 Q475.7813,241.9688 474.9844,242.2969 Q473.9063,242.75 472.6094,242.75 Q471.0938,242.75 469.8906,242.125 Q468.9063,241.625 468.2188,240.5625 Q467.5313,239.4844 467.5313,238.2031 L467.5313,237.0469 Q467.5313,235.7188 468.1406,234.5781 Q468.7656,233.4219 469.8594,232.8125 Q470.9531,232.1875 472.1875,232.1875 Q472.9219,232.1875 473.5625,232.3594 Q474.2188,232.5156 474.7656,232.875 Z " fill="#000000"/><text fill="#000000" font-family="sans-serif" font-size="14" lengthAdjust="spacing" textLength="199.9922" x="486" y="242.7285">AdminLecturerAssignmentPanel</text><line style="stroke:#181818;stroke-width:0.5;" x1="458" x2="687.9922" y1="253" y2="253"/><line style="stroke:#181818;stroke-width:0.5;" x1="458" x2="687.9922" y1="261" y2="261"/></g><!--class AdminClassCreationPanel--><g class="entity" data-qualified-name="AdminClassCreationPanel" data-source-line="85" id="ent0021"><rect fill="#F1F1F1" height="48" rx="2.5" ry="2.5" style="stroke:#181818;stroke-width:0.5;" width="195.4131" x="724.5" y="221"/><ellipse cx="739.5" cy="237" fill="#ADD1B2" rx="11" ry="11" style="stroke:#181818;stroke-width:1;"/><path d="M742.2656,232.875 Q742.4219,232.6563 742.6094,232.5469 Q742.7969,232.4375 743.0156,232.4375 Q743.3906,232.4375 743.625,232.7031 Q743.8594,232.9531 743.8594,233.5625 L743.8594,235.0156 Q743.8594,235.625 743.625,235.8906 Q743.3906,236.1563 743.0156,236.1563 Q742.6719,236.1563 742.4688,235.9531 Q742.2656,235.7656 742.1563,235.25 Q742.1094,234.8906 741.9219,234.7031 Q741.5938,234.3281 740.9844,234.1094 Q740.375,233.8906 739.75,233.8906 Q738.9844,233.8906 738.3438,234.2188 Q737.7188,234.5469 737.2188,235.2969 Q736.7344,236.0469 736.7344,237.0781 L736.7344,238.1719 Q736.7344,239.4063 737.625,240.2344 Q738.5156,241.0469 740.1094,241.0469 Q741.0469,241.0469 741.7031,240.7969 Q742.0938,240.6406 742.5156,240.2031 Q742.7813,239.9375 742.9219,239.8594 Q743.0781,239.7813 743.2813,239.7813 Q743.6094,239.7813 743.8594,240.0469 Q744.125,240.2969 744.125,240.6406 Q744.125,240.9844 743.7813,241.3906 Q743.2813,241.9688 742.4844,242.2969 Q741.4063,242.75 740.1094,242.75 Q738.5938,242.75 737.3906,242.125 Q736.4063,241.625 735.7188,240.5625 Q735.0313,239.4844 735.0313,238.2031 L735.0313,237.0469 Q735.0313,235.7188 735.6406,234.5781 Q736.2656,233.4219 737.3594,232.8125 Q738.4531,232.1875 739.6875,232.1875 Q740.4219,232.1875 741.0625,232.3594 Q741.7188,232.5156 742.2656,232.875 Z " fill="#000000"/><text fill="#000000" font-family="sans-serif" font-size="14" lengthAdjust="spacing" textLength="163.4131" x="753.5" y="242.7285">AdminClassCreationPanel</text><line style="stroke:#181818;stroke-width:0.5;" x1="725.5" x2="918.9131" y1="253" y2="253"/><line style="stroke:#181818;stroke-width:0.5;" x1="725.5" x2="918.9131" y1="261" y2="261"/></g><!--class AdminGradingSystemPanel--><g class="entity" data-qualified-name="AdminGradingSystemPanel" data-source-line="86" id="ent0022"><rect fill="#F1F1F1" height="48" rx="2.5" ry="2.5" style="stroke:#181818;stroke-width:0.5;" width="203.9717" x="7" y="444"/><ellipse cx="22" cy="460" fill="#ADD1B2" rx="11" ry="11" style="stroke:#181818;stroke-width:1;"/><path d="M24.7656,455.875 Q24.9219,455.6563 25.1094,455.5469 Q25.2969,455.4375 25.5156,455.4375 Q25.8906,455.4375 26.125,455.7031 Q26.3594,455.9531 26.3594,456.5625 L26.3594,458.0156 Q26.3594,458.625 26.125,458.8906 Q25.8906,459.1563 25.5156,459.1563 Q25.1719,459.1563 24.9688,458.9531 Q24.7656,458.7656 24.6563,458.25 Q24.6094,457.8906 24.4219,457.7031 Q24.0938,457.3281 23.4844,457.1094 Q22.875,456.8906 22.25,456.8906 Q21.4844,456.8906 20.8438,457.2188 Q20.2188,457.5469 19.7188,458.2969 Q19.2344,459.0469 19.2344,460.0781 L19.2344,461.1719 Q19.2344,462.4063 20.125,463.2344 Q21.0156,464.0469 22.6094,464.0469 Q23.5469,464.0469 24.2031,463.7969 Q24.5938,463.6406 25.0156,463.2031 Q25.2813,462.9375 25.4219,462.8594 Q25.5781,462.7813 25.7813,462.7813 Q26.1094,462.7813 26.3594,463.0469 Q26.625,463.2969 26.625,463.6406 Q26.625,463.9844 26.2813,464.3906 Q25.7813,464.9688 24.9844,465.2969 Q23.9063,465.75 22.6094,465.75 Q21.0938,465.75 19.8906,465.125 Q18.9063,464.625 18.2188,463.5625 Q17.5313,462.4844 17.5313,461.2031 L17.5313,460.0469 Q17.5313,458.7188 18.1406,457.5781 Q18.7656,456.4219 19.8594,455.8125 Q20.9531,455.1875 22.1875,455.1875 Q22.9219,455.1875 23.5625,455.3594 Q24.2188,455.5156 24.7656,455.875 Z " fill="#000000"/><text fill="#000000" font-family="sans-serif" font-size="14" lengthAdjust="spacing" textLength="171.9717" x="36" y="465.7285">AdminGradingSystemPanel</text><line style="stroke:#181818;stroke-width:0.5;" x1="8" x2="209.9717" y1="476" y2="476"/><line style="stroke:#181818;stroke-width:0.5;" x1="8" x2="209.9717" y1="484" y2="484"/></g><!--class AcademicLeaderDashboard--><g class="entity" data-qualified-name="AcademicLeaderDashboard" data-source-line="87" id="ent0023"><rect fill="#F1F1F1" height="48" rx="2.5" ry="2.5" style="stroke:#181818;stroke-width:0.5;" width="205.5508" x="1256" y="42"/><ellipse cx="1271" cy="58" fill="#ADD1B2" rx="11" ry="11" style="stroke:#181818;stroke-width:1;"/><path d="M1273.7656,53.875 Q1273.9219,53.6563 1274.1094,53.5469 Q1274.2969,53.4375 1274.5156,53.4375 Q1274.8906,53.4375 1275.125,53.7031 Q1275.3594,53.9531 1275.3594,54.5625 L1275.3594,56.0156 Q1275.3594,56.625 1275.125,56.8906 Q1274.8906,57.1563 1274.5156,57.1563 Q1274.1719,57.1563 1273.9688,56.9531 Q1273.7656,56.7656 1273.6563,56.25 Q1273.6094,55.8906 1273.4219,55.7031 Q1273.0938,55.3281 1272.4844,55.1094 Q1271.875,54.8906 1271.25,54.8906 Q1270.4844,54.8906 1269.8438,55.2188 Q1269.2188,55.5469 1268.7188,56.2969 Q1268.2344,57.0469 1268.2344,58.0781 L1268.2344,59.1719 Q1268.2344,60.4063 1269.125,61.2344 Q1270.0156,62.0469 1271.6094,62.0469 Q1272.5469,62.0469 1273.2031,61.7969 Q1273.5938,61.6406 1274.0156,61.2031 Q1274.2813,60.9375 1274.4219,60.8594 Q1274.5781,60.7813 1274.7813,60.7813 Q1275.1094,60.7813 1275.3594,61.0469 Q1275.625,61.2969 1275.625,61.6406 Q1275.625,61.9844 1275.2813,62.3906 Q1274.7813,62.9688 1273.9844,63.2969 Q1272.9063,63.75 1271.6094,63.75 Q1270.0938,63.75 1268.8906,63.125 Q1267.9063,62.625 1267.2188,61.5625 Q1266.5313,60.4844 1266.5313,59.2031 L1266.5313,58.0469 Q1266.5313,56.7188 1267.1406,55.5781 Q1267.7656,54.4219 1268.8594,53.8125 Q1269.9531,53.1875 1271.1875,53.1875 Q1271.9219,53.1875 1272.5625,53.3594 Q1273.2188,53.5156 1273.7656,53.875 Z " fill="#000000"/><text fill="#000000" font-family="sans-serif" font-size="14" lengthAdjust="spacing" textLength="173.5508" x="1285" y="63.7285">AcademicLeaderDashboard</text><line style="stroke:#181818;stroke-width:0.5;" x1="1257" x2="1460.5508" y1="74" y2="74"/><line style="stroke:#181818;stroke-width:0.5;" x1="1257" x2="1460.5508" y1="82" y2="82"/></g><!--class AcademicLeaderReportsPanel--><g class="entity" data-qualified-name="AcademicLeaderReportsPanel" data-source-line="88" id="ent0024"><rect fill="#F1F1F1" height="48" rx="2.5" ry="2.5" style="stroke:#181818;stroke-width:0.5;" width="221.8887" x="246" y="444"/><ellipse cx="261" cy="460" fill="#ADD1B2" rx="11" ry="11" style="stroke:#181818;stroke-width:1;"/><path d="M263.7656,455.875 Q263.9219,455.6563 264.1094,455.5469 Q264.2969,455.4375 264.5156,455.4375 Q264.8906,455.4375 265.125,455.7031 Q265.3594,455.9531 265.3594,456.5625 L265.3594,458.0156 Q265.3594,458.625 265.125,458.8906 Q264.8906,459.1563 264.5156,459.1563 Q264.1719,459.1563 263.9688,458.9531 Q263.7656,458.7656 263.6563,458.25 Q263.6094,457.8906 263.4219,457.7031 Q263.0938,457.3281 262.4844,457.1094 Q261.875,456.8906 261.25,456.8906 Q260.4844,456.8906 259.8438,457.2188 Q259.2188,457.5469 258.7188,458.2969 Q258.2344,459.0469 258.2344,460.0781 L258.2344,461.1719 Q258.2344,462.4063 259.125,463.2344 Q260.0156,464.0469 261.6094,464.0469 Q262.5469,464.0469 263.2031,463.7969 Q263.5938,463.6406 264.0156,463.2031 Q264.2813,462.9375 264.4219,462.8594 Q264.5781,462.7813 264.7813,462.7813 Q265.1094,462.7813 265.3594,463.0469 Q265.625,463.2969 265.625,463.6406 Q265.625,463.9844 265.2813,464.3906 Q264.7813,464.9688 263.9844,465.2969 Q262.9063,465.75 261.6094,465.75 Q260.0938,465.75 258.8906,465.125 Q257.9063,464.625 257.2188,463.5625 Q256.5313,462.4844 256.5313,461.2031 L256.5313,460.0469 Q256.5313,458.7188 257.1406,457.5781 Q257.7656,456.4219 258.8594,455.8125 Q259.9531,455.1875 261.1875,455.1875 Q261.9219,455.1875 262.5625,455.3594 Q263.2188,455.5156 263.7656,455.875 Z " fill="#000000"/><text fill="#000000" font-family="sans-serif" font-size="14" lengthAdjust="spacing" textLength="189.8887" x="275" y="465.7285">AcademicLeaderReportsPanel</text><line style="stroke:#181818;stroke-width:0.5;" x1="247" x2="466.8887" y1="476" y2="476"/><line style="stroke:#181818;stroke-width:0.5;" x1="247" x2="466.8887" y1="484" y2="484"/></g><!--class LecturerDashboard--><g class="entity" data-qualified-name="LecturerDashboard" data-source-line="89" id="ent0025"><rect fill="#F1F1F1" height="48" rx="2.5" ry="2.5" style="stroke:#181818;stroke-width:0.5;" width="151.8477" x="1497" y="42"/><ellipse cx="1512" cy="58" fill="#ADD1B2" rx="11" ry="11" style="stroke:#181818;stroke-width:1;"/><path d="M1514.7656,53.875 Q1514.9219,53.6563 1515.1094,53.5469 Q1515.2969,53.4375 1515.5156,53.4375 Q1515.8906,53.4375 1516.125,53.7031 Q1516.3594,53.9531 1516.3594,54.5625 L1516.3594,56.0156 Q1516.3594,56.625 1516.125,56.8906 Q1515.8906,57.1563 1515.5156,57.1563 Q1515.1719,57.1563 1514.9688,56.9531 Q1514.7656,56.7656 1514.6563,56.25 Q1514.6094,55.8906 1514.4219,55.7031 Q1514.0938,55.3281 1513.4844,55.1094 Q1512.875,54.8906 1512.25,54.8906 Q1511.4844,54.8906 1510.8438,55.2188 Q1510.2188,55.5469 1509.7188,56.2969 Q1509.2344,57.0469 1509.2344,58.0781 L1509.2344,59.1719 Q1509.2344,60.4063 1510.125,61.2344 Q1511.0156,62.0469 1512.6094,62.0469 Q1513.5469,62.0469 1514.2031,61.7969 Q1514.5938,61.6406 1515.0156,61.2031 Q1515.2813,60.9375 1515.4219,60.8594 Q1515.5781,60.7813 1515.7813,60.7813 Q1516.1094,60.7813 1516.3594,61.0469 Q1516.625,61.2969 1516.625,61.6406 Q1516.625,61.9844 1516.2813,62.3906 Q1515.7813,62.9688 1514.9844,63.2969 Q1513.9063,63.75 1512.6094,63.75 Q1511.0938,63.75 1509.8906,63.125 Q1508.9063,62.625 1508.2188,61.5625 Q1507.5313,60.4844 1507.5313,59.2031 L1507.5313,58.0469 Q1507.5313,56.7188 1508.1406,55.5781 Q1508.7656,54.4219 1509.8594,53.8125 Q1510.9531,53.1875 1512.1875,53.1875 Q1512.9219,53.1875 1513.5625,53.3594 Q1514.2188,53.5156 1514.7656,53.875 Z " fill="#000000"/><text fill="#000000" font-family="sans-serif" font-size="14" lengthAdjust="spacing" textLength="119.8477" x="1526" y="63.7285">LecturerDashboard</text><line style="stroke:#181818;stroke-width:0.5;" x1="1498" x2="1647.8477" y1="74" y2="74"/><line style="stroke:#181818;stroke-width:0.5;" x1="1498" x2="1647.8477" y1="82" y2="82"/></g><!--class StudentDashboard--><g class="entity" data-qualified-name="StudentDashboard" data-source-line="90" id="ent0026"><rect fill="#F1F1F1" height="48" rx="2.5" ry="2.5" style="stroke:#181818;stroke-width:0.5;" width="148.751" x="1684.5" y="42"/><ellipse cx="1699.5" cy="58" fill="#ADD1B2" rx="11" ry="11" style="stroke:#181818;stroke-width:1;"/><path d="M1702.2656,53.875 Q1702.4219,53.6563 1702.6094,53.5469 Q1702.7969,53.4375 1703.0156,53.4375 Q1703.3906,53.4375 1703.625,53.7031 Q1703.8594,53.9531 1703.8594,54.5625 L1703.8594,56.0156 Q1703.8594,56.625 1703.625,56.8906 Q1703.3906,57.1563 1703.0156,57.1563 Q1702.6719,57.1563 1702.4688,56.9531 Q1702.2656,56.7656 1702.1563,56.25 Q1702.1094,55.8906 1701.9219,55.7031 Q1701.5938,55.3281 1700.9844,55.1094 Q1700.375,54.8906 1699.75,54.8906 Q1698.9844,54.8906 1698.3438,55.2188 Q1697.7188,55.5469 1697.2188,56.2969 Q1696.7344,57.0469 1696.7344,58.0781 L1696.7344,59.1719 Q1696.7344,60.4063 1697.625,61.2344 Q1698.5156,62.0469 1700.1094,62.0469 Q1701.0469,62.0469 1701.7031,61.7969 Q1702.0938,61.6406 1702.5156,61.2031 Q1702.7813,60.9375 1702.9219,60.8594 Q1703.0781,60.7813 1703.2813,60.7813 Q1703.6094,60.7813 1703.8594,61.0469 Q1704.125,61.2969 1704.125,61.6406 Q1704.125,61.9844 1703.7813,62.3906 Q1703.2813,62.9688 1702.4844,63.2969 Q1701.4063,63.75 1700.1094,63.75 Q1698.5938,63.75 1697.3906,63.125 Q1696.4063,62.625 1695.7188,61.5625 Q1695.0313,60.4844 1695.0313,59.2031 L1695.0313,58.0469 Q1695.0313,56.7188 1695.6406,55.5781 Q1696.2656,54.4219 1697.3594,53.8125 Q1698.4531,53.1875 1699.6875,53.1875 Q1700.4219,53.1875 1701.0625,53.3594 Q1701.7188,53.5156 1702.2656,53.875 Z " fill="#000000"/><text fill="#000000" font-family="sans-serif" font-size="14" lengthAdjust="spacing" textLength="116.751" x="1713.5" y="63.7285">StudentDashboard</text><line style="stroke:#181818;stroke-width:0.5;" x1="1685.5" x2="1832.251" y1="74" y2="74"/><line style="stroke:#181818;stroke-width:0.5;" x1="1685.5" x2="1832.251" y1="82" y2="82"/></g><!--class main--><g class="entity" data-qualified-name="main" data-source-line="93" id="ent0027"><rect fill="#F1F1F1" height="48" rx="2.5" ry="2.5" style="stroke:#181818;stroke-width:0.5;" width="62.3447" x="503" y="444"/><ellipse cx="518" cy="460" fill="#ADD1B2" rx="11" ry="11" style="stroke:#181818;stroke-width:1;"/><path d="M520.7656,455.875 Q520.9219,455.6563 521.1094,455.5469 Q521.2969,455.4375 521.5156,455.4375 Q521.8906,455.4375 522.125,455.7031 Q522.3594,455.9531 522.3594,456.5625 L522.3594,458.0156 Q522.3594,458.625 522.125,458.8906 Q521.8906,459.1563 521.5156,459.1563 Q521.1719,459.1563 520.9688,458.9531 Q520.7656,458.7656 520.6563,458.25 Q520.6094,457.8906 520.4219,457.7031 Q520.0938,457.3281 519.4844,457.1094 Q518.875,456.8906 518.25,456.8906 Q517.4844,456.8906 516.8438,457.2188 Q516.2188,457.5469 515.7188,458.2969 Q515.2344,459.0469 515.2344,460.0781 L515.2344,461.1719 Q515.2344,462.4063 516.125,463.2344 Q517.0156,464.0469 518.6094,464.0469 Q519.5469,464.0469 520.2031,463.7969 Q520.5938,463.6406 521.0156,463.2031 Q521.2813,462.9375 521.4219,462.8594 Q521.5781,462.7813 521.7813,462.7813 Q522.1094,462.7813 522.3594,463.0469 Q522.625,463.2969 522.625,463.6406 Q522.625,463.9844 522.2813,464.3906 Q521.7813,464.9688 520.9844,465.2969 Q519.9063,465.75 518.6094,465.75 Q517.0938,465.75 515.8906,465.125 Q514.9063,464.625 514.2188,463.5625 Q513.5313,462.4844 513.5313,461.2031 L513.5313,460.0469 Q513.5313,458.7188 514.1406,457.5781 Q514.7656,456.4219 515.8594,455.8125 Q516.9531,455.1875 518.1875,455.1875 Q518.9219,455.1875 519.5625,455.3594 Q520.2188,455.5156 520.7656,455.875 Z " fill="#000000"/><text fill="#000000" font-family="sans-serif" font-size="14" lengthAdjust="spacing" textLength="30.3447" x="532" y="465.7285">main</text><line style="stroke:#181818;stroke-width:0.5;" x1="504" x2="564.3447" y1="476" y2="476"/><line style="stroke:#181818;stroke-width:0.5;" x1="504" x2="564.3447" y1="484" y2="484"/></g><!--reverse link User to AdminStaff--><g class="link" data-entity-1="ent0002" data-entity-2="ent0003" data-link-type="extension" data-source-line="96" id="lnk28"><path codeLine="96" d="M1058.1943,585.9793 C1029.8243,628.0993 1009.51,658.25 991.67,684.74" fill="none" id="User-backto-AdminStaff" style="stroke:#181818;stroke-width:1;"/><polygon fill="none" points="1068.25,571.05,1053.2179,582.6274,1063.1708,589.3312,1068.25,571.05" style="stroke:#181818;stroke-width:1;"/></g><!--reverse link User to AcademicLeader--><g class="link" data-entity-1="ent0002" data-entity-2="ent0004" data-link-type="extension" data-source-line="97" id="lnk29"><path codeLine="97" d="M1046.5526,493.965 C951.5626,521.105 798.88,568.57 661,632 C649.31,637.38 637.32,643.52 625.58,649.92" fill="none" id="User-backto-AcademicLeader" style="stroke:#181818;stroke-width:1;"/><polygon fill="none" points="1063.86,489.02,1044.9042,488.1958,1048.2009,499.7341,1063.86,489.02" style="stroke:#181818;stroke-width:1;"/></g><!--reverse link User to Lecturer--><g class="link" data-entity-1="ent0002" data-entity-2="ent0005" data-link-type="extension" data-source-line="98" id="lnk30"><path codeLine="98" d="M1214.7984,587.083 C1224.9084,606.543 1225.47,611.33 1231,632 C1248.7,698.12 1245.7,719.15 1231,786 C1225.16,812.54 1213.98,840.01 1202.39,863.81" fill="none" id="User-backto-Lecturer" style="stroke:#181818;stroke-width:1;"/><polygon fill="none" points="1206.5,571.11,1209.4741,589.8491,1220.1227,584.3169,1206.5,571.11" style="stroke:#181818;stroke-width:1;"/></g><!--reverse link User to Student--><g class="link" data-entity-1="ent0002" data-entity-2="ent0006" data-link-type="extension" data-source-line="99" id="lnk31"><path codeLine="99" d="M1137,589.05 C1137,622.93 1137,640.71 1137,667.21" fill="none" id="User-backto-Student" style="stroke:#181818;stroke-width:1;"/><polygon fill="none" points="1137,571.05,1131,589.05,1143,589.05,1137,571.05" style="stroke:#181818;stroke-width:1;"/></g><!--reverse link AcademicLeader to Lecturer--><g class="link" data-entity-1="ent0004" data-entity-2="ent0005" data-link-type="aggregation" data-source-line="101" id="lnk32"><path codeLine="101" d="M634.8279,773.755 C646.9479,780.275 648.82,780.76 661,786 C697.62,801.77 920.43,864.06 1056.93,901.68" fill="none" id="AcademicLeader-backto-Lecturer" style="stroke:#181818;stroke-width:1;"/><polygon fill="none" points="624.26,768.07,627.6489,774.4351,634.8279,773.755,631.439,767.3899,624.26,768.07" style="stroke:#181818;stroke-width:1;"/><text fill="#000000" font-family="sans-serif" font-size="13" lengthAdjust="spacing" textLength="44.0781" x="808" y="830.4951">assigns</text><text fill="#000000" font-family="sans-serif" font-size="13" lengthAdjust="spacing" textLength="7.23" x="628.0644" y="789.734">1</text><text fill="#000000" font-family="sans-serif" font-size="13" lengthAdjust="spacing" textLength="5.0591" x="1043.9016" y="896.3722">*</text></g><!--reverse link AcademicLeader to Module--><g class="link" data-entity-1="ent0004" data-entity-2="ent0007" data-link-type="aggregation" data-source-line="102" id="lnk33"><path codeLine="102" d="M588.1534,777.1546 C643.0734,840.4646 730.05,932.63 828,1000 C912.73,1058.27 1023.04,1103.93 1093.71,1129.94" fill="none" id="AcademicLeader-backto-Module" style="stroke:#181818;stroke-width:1;"/><polygon fill="none" points="580.29,768.09,581.2001,775.2434,588.1534,777.1546,587.2432,770.0012,580.29,768.09" style="stroke:#181818;stroke-width:1;"/><text fill="#000000" font-family="sans-serif" font-size="13" lengthAdjust="spacing" textLength="53.479" x="829" y="937.4951">manages</text><text fill="#000000" font-family="sans-serif" font-size="13" lengthAdjust="spacing" textLength="7.23" x="578.7355" y="789.7565">1</text><text fill="#000000" font-family="sans-serif" font-size="13" lengthAdjust="spacing" textLength="5.0591" x="1080.7307" y="1123.8572">*</text></g><!--reverse link Lecturer to Module--><g class="link" data-entity-1="ent0005" data-entity-2="ent0007" data-link-type="aggregation" data-source-line="103" id="lnk34"><path codeLine="103" d="M1164,1012.21 C1164,1036.72 1164,1052.6 1164,1077.83" fill="none" id="Lecturer-backto-Module" style="stroke:#181818;stroke-width:1;"/><polygon fill="none" points="1164,1000.21,1160,1006.21,1164,1012.21,1168,1006.21,1164,1000.21" style="stroke:#181818;stroke-width:1;"/><text fill="#000000" font-family="sans-serif" font-size="13" lengthAdjust="spacing" textLength="101.1753" x="1165" y="1044.4951">assignedModules</text><text fill="#000000" font-family="sans-serif" font-size="13" lengthAdjust="spacing" textLength="5.0591" x="1158.7677" y="1021.58">*</text><text fill="#000000" font-family="sans-serif" font-size="13" lengthAdjust="spacing" textLength="5.0591" x="1158.7462" y="1067.2405">*</text></g><!--reverse link ClassModule to Module--><g class="link" data-entity-1="ent0008" data-entity-2="ent0007" data-link-type="aggregation" data-source-line="104" id="lnk35"><path codeLine="104" d="M840.5284,796.1899 C880.7584,856.6399 934.22,931.98 995,1000 C1025.28,1033.89 1062.29,1068.27 1093.94,1095.93" fill="none" id="ClassModule-backto-Module" style="stroke:#181818;stroke-width:1;"/><polygon fill="none" points="833.88,786.2,833.8742,793.4111,840.5284,796.1899,840.5342,788.9788,833.88,786.2" style="stroke:#181818;stroke-width:1;"/><text fill="#000000" font-family="sans-serif" font-size="13" lengthAdjust="spacing" textLength="42.6372" x="996" y="937.4951">module</text><text fill="#000000" font-family="sans-serif" font-size="13" lengthAdjust="spacing" textLength="5.0591" x="832.8672" y="807.0469">*</text><text fill="#000000" font-family="sans-serif" font-size="13" lengthAdjust="spacing" textLength="7.23" x="1078.8859" y="1086.1274">1</text></g><!--reverse link ClassModule to Lecturer--><g class="link" data-entity-1="ent0008" data-entity-2="ent0005" data-link-type="aggregation" data-source-line="105" id="lnk36"><path codeLine="105" d="M902.0168,783.7359 C907.6168,786.4259 902.42,783.74 908,786 C965.36,809.26 989.4,786.84 1044,816 C1066.78,828.17 1088.3,845.88 1106.65,863.78" fill="none" id="ClassModule-backto-Lecturer" style="stroke:#181818;stroke-width:1;"/><polygon fill="none" points="891.2,778.54,894.8764,784.7435,902.0168,783.7359,898.3404,777.5324,891.2,778.54" style="stroke:#181818;stroke-width:1;"/><text fill="#000000" font-family="sans-serif" font-size="13" lengthAdjust="spacing" textLength="43.3481" x="1072" y="830.4951">lecturer</text><text fill="#000000" font-family="sans-serif" font-size="13" lengthAdjust="spacing" textLength="7.23" x="898.9204" y="780.3866">1</text><text fill="#000000" font-family="sans-serif" font-size="13" lengthAdjust="spacing" textLength="21.6836" x="1078.2901" y="852.9552">0..1</text></g><!--reverse link Assessment to Module--><g class="link" data-entity-1="ent0009" data-entity-2="ent0007" data-link-type="aggregation" data-source-line="106" id="lnk37"><path codeLine="106" d="M1408.3217,788.4341 C1381.5717,859.6741 1337.55,962.29 1275,1048 C1263.14,1064.25 1248.62,1080.14 1234.04,1094.46" fill="none" id="Assessment-backto-Module" style="stroke:#181818;stroke-width:1;"/><polygon fill="none" points="1412.54,777.2,1406.6861,781.411,1408.3217,788.4341,1414.1756,784.2232,1412.54,777.2" style="stroke:#181818;stroke-width:1;"/><text fill="#000000" font-family="sans-serif" font-size="13" lengthAdjust="spacing" textLength="42.6372" x="1377" y="937.4951">module</text><text fill="#000000" font-family="sans-serif" font-size="13" lengthAdjust="spacing" textLength="5.0591" x="1404.8791" y="798.569">*</text><text fill="#000000" font-family="sans-serif" font-size="13" lengthAdjust="spacing" textLength="7.23" x="1242.5341" y="1084.0704">1</text></g><!--reverse link Assessment to Lecturer--><g class="link" data-entity-1="ent0009" data-entity-2="ent0005" data-link-type="aggregation" data-source-line="107" id="lnk38"><path codeLine="107" d="M1350.6909,785.015 C1329.0209,803.695 1314.32,815.96 1292,834 C1279.86,843.81 1266.9,853.98 1254.07,863.86" fill="none" id="Assessment-backto-Lecturer" style="stroke:#181818;stroke-width:1;"/><polygon fill="none" points="1359.78,777.18,1352.6238,778.0678,1350.6909,785.015,1357.8471,784.1272,1359.78,777.18" style="stroke:#181818;stroke-width:1;"/><text fill="#000000" font-family="sans-serif" font-size="13" lengthAdjust="spacing" textLength="58.5317" x="1312" y="830.4951">createdBy</text><text fill="#000000" font-family="sans-serif" font-size="13" lengthAdjust="spacing" textLength="7.23" x="1344.5839" y="798.5469">1</text><text fill="#000000" font-family="sans-serif" font-size="13" lengthAdjust="spacing" textLength="21.6836" x="1241.8342" y="853.044">0..1</text></g><!--reverse link SystemManager to User--><g class="link" data-entity-1="ent0012" data-entity-2="ent0002" data-link-type="composition" data-source-line="108" id="lnk39"><path codeLine="108" d="M1218.3474,314.6553 C1208.3774,333.3253 1202.67,344.01 1191.53,364.88" fill="none" id="SystemManager-backto-User" style="stroke:#181818;stroke-width:1;"/><polygon fill="#181818" points="1224,304.07,1217.6453,307.4784,1218.3474,314.6553,1224.7021,311.2468,1224,304.07" style="stroke:#181818;stroke-width:1;"/><text fill="#000000" font-family="sans-serif" font-size="13" lengthAdjust="spacing" textLength="7.23" x="1212.8316" y="325.734">1</text><text fill="#000000" font-family="sans-serif" font-size="13" lengthAdjust="spacing" textLength="5.0591" x="1190.3587" y="354.2099">*</text></g><!--reverse link SystemManager to Module--><g class="link" data-entity-1="ent0012" data-entity-2="ent0007" data-link-type="composition" data-source-line="109" id="lnk40"><path codeLine="109" d="M1375.2675,269.6955 C1478.3575,296.3655 1606,350.88 1606,467 C1606,467 1606,467 1606,933 C1606,1097.29 1358.67,1139.46 1234.04,1150.27" fill="none" id="SystemManager-backto-Module" style="stroke:#181818;stroke-width:1;"/><polygon fill="#181818" points="1363.65,266.69,1368.4569,272.0653,1375.2675,269.6955,1370.4606,264.3203,1363.65,266.69" style="stroke:#181818;stroke-width:1;"/><text fill="#000000" font-family="sans-serif" font-size="13" lengthAdjust="spacing" textLength="7.23" x="1371.2051" y="265.102">1</text><text fill="#000000" font-family="sans-serif" font-size="13" lengthAdjust="spacing" textLength="5.0591" x="1242.4086" y="1146.3334">*</text></g><!--reverse link SystemManager to ClassModule--><g class="link" data-entity-1="ent0012" data-entity-2="ent0008" data-link-type="composition" data-source-line="110" id="lnk41"><path codeLine="110" d="M1135.8869,302.7857 C1101.8169,321.5357 1075.85,338.88 1046,365 C956.33,443.48 877.22,557.05 830.24,631.69" fill="none" id="SystemManager-backto-ClassModule" style="stroke:#181818;stroke-width:1;"/><polygon fill="#181818" points="1146.4,297,1139.2149,296.3885,1135.8869,302.7857,1143.072,303.3972,1146.4,297" style="stroke:#181818;stroke-width:1;"/><text fill="#000000" font-family="sans-serif" font-size="13" lengthAdjust="spacing" textLength="7.23" x="1131.1895" y="297.7232">1</text><text fill="#000000" font-family="sans-serif" font-size="13" lengthAdjust="spacing" textLength="5.0591" x="829.3152" y="621.0871">*</text></g><!--reverse link SystemManager to Assessment--><g class="link" data-entity-1="ent0012" data-entity-2="ent0009" data-link-type="composition" data-source-line="111" id="lnk42"><path codeLine="111" d="M1282.1169,315.2133 C1315.7269,401.0133 1374.14,550.1 1409.69,640.85" fill="none" id="SystemManager-backto-Assessment" style="stroke:#181818;stroke-width:1;"/><polygon fill="#181818" points="1277.74,304.04,1276.204,311.0856,1282.1169,315.2133,1283.6529,308.1677,1277.74,304.04" style="stroke:#181818;stroke-width:1;"/><text fill="#000000" font-family="sans-serif" font-size="13" lengthAdjust="spacing" textLength="7.23" x="1273.2433" y="326.1191">1</text><text fill="#000000" font-family="sans-serif" font-size="13" lengthAdjust="spacing" textLength="5.0591" x="1401.5561" y="630.0329">*</text></g><!--link AFSLoginFrame to SystemManager--><g class="link" data-entity-1="ent0016" data-entity-2="ent0012" data-link-type="dependency" data-source-line="114" id="lnk43"><path codeLine="114" d="M798.54,90.08 C814.18,101.83 834.34,115.59 854,125 C948.49,170.22 1057.9679,200.9027 1140.6479,220.2527" fill="none" id="AFSLoginFrame-to-SystemManager" style="stroke:#181818;stroke-width:1;"/><polygon fill="#181818" points="1146.49,221.62,1138.6383,215.6743,1141.6216,220.4806,1136.8153,223.4639,1146.49,221.62" style="stroke:#181818;stroke-width:1;"/></g><!--link AFSRegistrationFrame to SystemManager--><g class="link" data-entity-1="ent0017" data-entity-2="ent0012" data-link-type="dependency" data-source-line="115" id="lnk44"><path codeLine="115" d="M997.7,90.14 C1038.13,114.32 1098.0002,150.1211 1152.5602,182.7411" fill="none" id="AFSRegistrationFrame-to-SystemManager" style="stroke:#181818;stroke-width:1;"/><polygon fill="#181818" points="1157.71,185.82,1152.0379,177.7684,1153.4185,183.2542,1147.9327,184.6348,1157.71,185.82" style="stroke:#181818;stroke-width:1;"/></g><!--link AdminDashboard to SystemManager--><g class="link" data-entity-1="ent0018" data-entity-2="ent0012" data-link-type="dependency" data-source-line="116" id="lnk45"><path codeLine="116" d="M1164.6,90.14 C1178.8,114.32 1198.61,148.0271 1217.78,180.6471" fill="none" id="AdminDashboard-to-SystemManager" style="stroke:#181818;stroke-width:1;"/><polygon fill="#181818" points="1220.82,185.82,1219.7086,176.034,1218.2867,181.5093,1212.8115,180.0873,1220.82,185.82" style="stroke:#181818;stroke-width:1;"/></g><!--link AcademicLeaderDashboard to SystemManager--><g class="link" data-entity-1="ent0023" data-entity-2="ent0012" data-link-type="dependency" data-source-line="117" id="lnk46"><path codeLine="117" d="M1345.4,90.14 C1331.2,114.32 1311.39,148.0271 1292.22,180.6471" fill="none" id="AcademicLeaderDashboard-to-SystemManager" style="stroke:#181818;stroke-width:1;"/><polygon fill="#181818" points="1289.18,185.82,1297.1885,180.0873,1291.7133,181.5093,1290.2914,176.034,1289.18,185.82" style="stroke:#181818;stroke-width:1;"/></g><!--link LecturerDashboard to SystemManager--><g class="link" data-entity-1="ent0025" data-entity-2="ent0012" data-link-type="dependency" data-source-line="118" id="lnk47"><path codeLine="118" d="M1537.15,90.19 C1520.02,101.05 1499.13,113.99 1480,125 C1442.56,146.54 1406.2233,166.1926 1369.0333,185.7026" fill="none" id="LecturerDashboard-to-SystemManager" style="stroke:#181818;stroke-width:1;"/><polygon fill="#181818" points="1363.72,188.49,1373.5481,187.8511,1368.1477,186.1672,1369.8316,180.7668,1363.72,188.49" style="stroke:#181818;stroke-width:1;"/></g><!--link StudentDashboard to SystemManager--><g class="link" data-entity-1="ent0026" data-entity-2="ent0012" data-link-type="dependency" data-source-line="119" id="lnk48"><path codeLine="119" d="M1727.04,90.29 C1709.9,101.95 1688.02,115.57 1667,125 C1568.17,169.35 1454.4346,200.3731 1369.6246,220.0631" fill="none" id="StudentDashboard-to-SystemManager" style="stroke:#181818;stroke-width:1;"/><polygon fill="#181818" points="1363.78,221.42,1373.4514,223.281,1368.6505,220.2892,1371.6422,215.4883,1363.78,221.42" style="stroke:#181818;stroke-width:1;"/></g><?plantuml-src VLLDQ-Cm4BtxLuXS5WefxRKKGpObRI4jIxCzx56n9gceBHb9fdG__llgqzOuQYu9VlD6UZEUUTRlNFHKqOuqBTLwPOpY-y70OoF5Zly6SbLz8ylbagob0i9aHxa8LD2L_oUl6XJvKn6otDbaSII31HxlPe2W7MHGRpC_f68P1FRiDdi-36txFCjwamAUXsuFAaEF85W0k3247lCC9Lke_bLHwefrNEmCFHmIq5067M-sOFzn5GniNqm7mcHWwtcXk2tNvdOBZHaKg9hOu_XH04k87ZbFaWqjrAIZmefZuL5RLK53Ia2tjn54VTHEEKAA8YagAXERX2IfSoKxCp1x51AY0uPk1M7RshfRVm5LKtl3UIYzyn3A3j3ipGPmBHcWwdIZU6-u5EdjDWeODmzo2FqzRSCePkr-2ufy50doI55Fx5rwGUcbZ0sD3QjZHu15G8zoQKyRRZwp4NIRexjvc-a88saJdFHD-Jy_UyW8xj4HOicX02JVzeuQOD-BQdnw03S0R4-RToJm4C4lvCtcz7Hcie6sjmTFUV8BeJIXWf71y9ORFjhAxbCRw28bIF4zTtPJUqifR5WSw8HdCr2FhfM2K-rrLiYq3HlUGhm-8lUACbjBK3R36cgx7UkwVtsSUUHgizlA8nSRvLxZYBt0qIfHr4qu2ZcVkgFwRI-fzSWCTDK7KKxi3ogWpSFfNQ_yXXSflYThDmhsqfCeAX55aQcSQ4FH5-YbCZfFJyBcYN5X9dWS3IuYnNro4lm2hTUjttYlA__bkVrhySpOCn29oW99J0P57LKr-o8ihXT4slZYOZ4PzKrqK7sE7VVm9jg-hiPq5prXpJqvjwynuJe_DYmuugNhhoulhv7UqRao-pbtQaxxyj39J_2kkeoBM9_hy9bmkFSC8Ill36kIcw-W_13M9EoaL6ZzRBp6xbALLh54GsjP8fINfC0ysOS2PxuR1Sf_?></g></svg>